<?xml version="1.0" standalone="no"?>
<!DOCTYPE svg PUBLIC "-//W3C//DTD SVG 20010904//EN"
 "http://www.w3.org/TR/2001/REC-SVG-20010904/DTD/svg10.dtd">
<svg version="1.0" xmlns="http://www.w3.org/2000/svg"
 width="491.000000pt" height="524.000000pt" viewBox="0 0 491.000000 524.000000"
 preserveAspectRatio="xMidYMid meet">
<metadata>
Created by potrace 1.10, written by Peter Selinger 2001-2011
</metadata>
<g transform="translate(0.000000,524.000000) scale(0.100000,-0.100000)"
fill="#143914" stroke="none">
<path d="M40 5140 l0 -80 2225 0 2225 0 0 80 0 80 -2225 0 -2225 0 0 -80z m77
-37 c-2 -21 -4 -4 -4 37 0 41 2 58 4 38 2 -21 2 -55 0 -75z m113 74 c13 4 26
0 31 -8 6 -11 9 -8 9 9 0 12 5 22 10 22 6 0 10 -10 10 -22 0 -17 3 -19 9 -10
5 8 17 12 27 10 11 -2 24 3 31 12 10 12 12 2 13 -54 0 -61 -2 -67 -13 -51 -8
10 -19 15 -26 11 -6 -4 -18 -2 -26 4 -12 10 -15 9 -15 -4 0 -9 -4 -16 -10 -16
-5 0 -10 10 -10 23 -1 20 -2 20 -11 4 -7 -11 -17 -16 -29 -12 -12 4 -22 -1
-29 -12 -8 -14 -10 0 -10 57 0 53 3 69 9 53 6 -16 14 -20 30 -16z m217 -74
c-2 -21 -4 -4 -4 37 0 41 2 58 4 38 2 -21 2 -55 0 -75z m118 75 c26 4 26 3 23
-39 -3 -38 -6 -44 -26 -44 -12 0 -27 -7 -32 -15 -7 -10 -10 9 -9 60 0 52 3 68
9 54 6 -17 15 -20 35 -16z m212 -75 c-2 -21 -4 -4 -4 37 0 41 2 58 4 38 2 -21
2 -55 0 -75z m108 73 c8 4 22 1 30 -6 12 -10 15 -9 15 9 0 11 5 21 10 21 6 0
10 -10 10 -21 0 -18 3 -19 15 -9 8 6 20 10 27 8 7 -3 18 2 25 11 10 13 12 3
12 -54 0 -61 -1 -67 -12 -47 -10 17 -16 19 -24 11 -9 -9 -16 -9 -28 1 -12 10
-15 10 -15 -4 0 -9 -4 -16 -10 -16 -5 0 -10 7 -10 16 0 13 -3 14 -15 4 -8 -6
-20 -8 -26 -4 -7 4 -18 -1 -26 -11 -11 -16 -13 -9 -12 56 0 54 3 68 9 52 6
-15 15 -21 25 -17z m222 -73 c-2 -21 -4 -4 -4 37 0 41 2 58 4 38 2 -21 2 -55
0 -75z m114 72 c21 0 24 -4 24 -40 0 -35 -3 -40 -23 -40 -12 0 -27 -7 -32 -15
-7 -10 -10 9 -9 60 0 46 3 67 8 55 5 -12 17 -20 32 -20z m216 -72 c-2 -21 -4
-4 -4 37 0 41 2 58 4 38 2 -21 2 -55 0 -75z m114 72 c21 0 24 -4 24 -40 0 -37
-2 -40 -27 -37 -18 2 -28 -3 -31 -15 -3 -10 -5 16 -5 57 0 45 2 67 7 55 5 -12
17 -20 32 -20z m216 -72 c-2 -21 -4 -4 -4 37 0 41 2 58 4 38 2 -21 2 -55 0
-75z m108 73 c8 4 22 1 30 -6 12 -10 15 -9 15 9 0 11 5 21 10 21 6 0 10 -9 10
-20 0 -18 2 -19 20 -8 17 11 22 10 29 0 6 -10 10 -8 16 10 8 21 8 21 12 -9 2
-18 2 -50 0 -70 -3 -33 -5 -35 -12 -15 -6 18 -10 20 -21 11 -11 -9 -17 -9 -28
0 -11 9 -15 7 -21 -11 -7 -22 -7 -22 -14 7 -5 24 -8 27 -14 12 -5 -13 -13 -16
-31 -11 -18 4 -25 1 -29 -13 -3 -10 -5 16 -5 57 -1 54 2 69 8 53 6 -15 15 -21
25 -17z m222 -73 c-2 -21 -4 -4 -4 37 0 41 2 58 4 38 2 -21 2 -55 0 -75z m118
75 c26 4 26 3 23 -39 -3 -41 -5 -44 -30 -41 -18 2 -28 -3 -31 -15 -3 -10 -5
16 -5 57 -1 51 2 68 8 54 6 -17 15 -20 35 -16z m214 -40 c-1 -40 -4 -63 -6
-51 -4 19 -8 21 -24 13 -27 -15 -39 -4 -39 36 0 38 21 54 45 34 13 -10 15 -8
15 14 0 14 2 26 5 26 3 0 4 -33 4 -72z m116 40 c26 4 26 3 23 -39 -3 -41 -5
-44 -30 -41 -18 2 -28 -3 -31 -15 -3 -10 -5 16 -5 57 -1 51 2 68 8 54 6 -17
15 -20 35 -16z m214 -40 c-1 -41 -4 -63 -7 -51 -5 16 -11 20 -21 14 -24 -15
-41 -1 -41 35 0 38 21 54 45 34 13 -10 15 -8 15 14 0 14 2 26 5 26 3 0 5 -33
4 -72z m116 40 c26 4 26 3 23 -39 -3 -41 -5 -44 -30 -41 -18 2 -28 -3 -31 -15
-3 -10 -5 16 -5 57 -1 51 2 68 8 54 6 -17 15 -20 35 -16z m214 -40 c-1 -40 -4
-63 -6 -51 -4 19 -8 21 -24 13 -28 -16 -39 -4 -39 41 0 31 4 39 18 39 10 0 23
-5 30 -12 9 -9 12 -6 12 15 0 15 2 27 5 27 3 0 4 -33 4 -72z m112 37 c21 0 24
-4 24 -40 0 -37 -2 -40 -27 -37 -18 2 -28 -3 -31 -15 -3 -10 -5 16 -5 57 0 45
2 67 7 55 5 -12 17 -20 32 -20z m218 -37 c-1 -40 -3 -65 -6 -55 -3 12 -13 17
-31 15 -25 -3 -27 0 -30 35 -2 28 1 39 14 44 10 4 19 2 22 -5 6 -18 22 -4 22
19 0 10 2 19 5 19 3 0 4 -33 4 -72z m109 35 c25 2 27 -1 27 -38 0 -37 -2 -40
-27 -38 -18 1 -28 -4 -31 -15 -3 -9 -5 17 -4 58 0 41 2 65 4 53 3 -16 11 -21
31 -20z m221 -35 c-1 -40 -3 -65 -6 -55 -3 12 -13 17 -31 15 -25 -3 -27 0 -30
41 l-3 44 30 -6 c26 -6 31 -3 31 13 0 11 2 20 5 20 3 0 4 -33 4 -72z m116 36
c22 0 36 5 39 16 3 11 6 9 11 -8 6 -18 10 -20 16 -10 7 10 12 11 28 1 16 -10
20 -9 26 10 7 20 8 19 12 -10 2 -18 2 -50 0 -70 -3 -33 -5 -35 -12 -15 -6 18
-10 20 -21 11 -11 -9 -17 -9 -28 0 -11 9 -15 7 -21 -11 -7 -19 -9 -14 -15 27
-6 48 -6 48 -11 15 -3 -31 -7 -35 -31 -32 -18 2 -28 -3 -31 -15 -3 -10 -5 16
-4 57 0 41 2 66 4 55 3 -16 12 -21 38 -21z m214 -36 c-1 -40 -3 -65 -6 -55 -3
12 -13 17 -31 15 -25 -3 -27 0 -27 37 0 37 2 40 28 38 21 -1 27 3 27 18 0 10
2 19 5 19 3 0 4 -33 4 -72z m109 35 c25 2 27 -1 27 -38 0 -37 -2 -40 -27 -37
-18 2 -28 -3 -31 -15 -3 -10 -5 16 -4 57 0 41 2 65 4 53 3 -16 11 -21 31 -20z
m221 -35 c-1 -40 -3 -65 -6 -55 -3 12 -13 17 -31 15 -25 -3 -27 0 -27 37 0 37
2 40 28 38 21 -1 27 3 27 18 0 10 2 19 5 19 3 0 4 -33 4 -72z m-3788 40 c0
-13 3 -17 6 -10 2 6 13 12 23 12 10 0 21 -6 23 -12 3 -8 6 -7 6 4 1 9 6 20 11
23 6 4 10 -19 10 -62 -1 -60 -2 -65 -13 -45 -10 17 -16 19 -24 11 -9 -9 -16
-9 -28 1 -12 10 -15 10 -15 -4 0 -9 -4 -16 -10 -16 -6 0 -10 27 -10 60 0 33 4
60 10 60 6 0 10 -10 11 -22z m660 0 c0 -13 3 -17 6 -10 2 6 13 12 23 12 10 0
21 -6 23 -12 3 -8 6 -7 6 4 1 9 6 20 11 23 6 4 10 -19 10 -62 -1 -60 -2 -65
-13 -45 -10 17 -16 19 -24 11 -9 -9 -16 -9 -28 1 -12 10 -15 10 -15 -4 0 -9
-4 -16 -10 -16 -6 0 -10 27 -10 60 0 33 4 60 10 60 6 0 10 -10 11 -22z m330 0
c0 -13 3 -17 6 -10 2 6 13 12 24 12 10 0 19 -6 20 -12 0 -7 5 -2 12 12 l11 25
4 -32 c2 -18 1 -50 -1 -70 -3 -33 -5 -35 -12 -15 -6 18 -10 20 -21 11 -11 -9
-18 -8 -29 1 -12 10 -15 10 -15 -3 0 -9 -4 -19 -10 -22 -6 -4 -10 18 -10 59 0
37 4 66 10 66 6 0 10 -10 11 -22z m660 -6 c0 -11 3 -12 6 -4 2 6 13 12 24 12
10 0 19 -6 20 -12 0 -7 5 -2 12 12 l11 25 4 -32 c2 -18 1 -50 -1 -70 -3 -33
-5 -35 -12 -15 -6 18 -10 20 -21 11 -11 -9 -18 -8 -29 1 -12 10 -15 10 -15 -3
0 -9 -4 -19 -10 -22 -6 -4 -10 18 -10 60 0 42 4 64 10 60 6 -3 10 -14 11 -23z
m330 0 c0 -11 3 -12 6 -4 2 6 13 12 24 12 10 0 19 -6 20 -12 0 -7 5 -2 12 12
l11 25 4 -32 c2 -18 1 -50 -1 -70 -3 -33 -5 -35 -12 -15 -6 18 -10 20 -21 11
-11 -9 -18 -8 -29 1 -12 10 -15 10 -15 -3 0 -9 -4 -19 -10 -22 -6 -4 -10 18
-10 60 0 42 4 64 10 60 6 -3 10 -14 11 -23z m329 0 c0 -13 2 -14 9 -4 5 8 17
12 27 10 11 -2 24 3 31 12 10 12 12 2 13 -53 0 -43 -4 -66 -10 -62 -5 3 -10
13 -10 22 0 13 -3 13 -15 3 -12 -10 -18 -10 -30 0 -12 10 -15 10 -15 -3 0 -9
-4 -19 -10 -22 -6 -4 -10 18 -10 60 0 42 4 64 10 60 6 -3 10 -14 10 -23z m331
0 c0 -11 3 -12 6 -4 2 6 13 12 24 12 10 0 19 -6 20 -12 0 -7 5 -2 12 12 l11
25 4 -32 c2 -18 1 -50 -1 -70 -3 -33 -5 -35 -12 -15 -6 18 -10 20 -21 11 -11
-9 -18 -8 -29 1 -12 10 -15 10 -15 -3 0 -9 -4 -19 -10 -22 -6 -4 -10 18 -10
60 0 42 4 64 10 60 6 -3 10 -14 11 -23z m329 0 c0 -13 2 -14 9 -4 5 8 17 12
27 10 11 -2 24 3 31 12 10 12 12 2 13 -53 0 -43 -4 -66 -10 -62 -5 3 -10 13
-10 22 0 13 -3 13 -15 3 -12 -10 -18 -10 -30 0 -12 10 -15 10 -15 -3 0 -9 -4
-19 -10 -22 -6 -4 -10 18 -10 60 0 42 4 64 10 60 6 -3 10 -14 10 -23z m661 0
c0 -11 3 -12 6 -4 2 6 13 12 24 12 10 0 19 -6 20 -12 0 -7 5 -2 12 12 l11 25
4 -32 c2 -18 1 -50 -1 -70 -3 -33 -5 -35 -12 -15 -6 18 -10 20 -21 11 -11 -9
-18 -8 -29 1 -12 10 -15 10 -15 -3 0 -9 -4 -19 -10 -22 -6 -4 -10 18 -10 60 0
42 4 64 10 60 6 -3 10 -14 11 -23z m-4076 -37 c0 -33 -3 -40 -20 -40 -15 0
-21 8 -23 28 -5 39 5 59 25 55 14 -2 18 -13 18 -43z m253 4 c3 -36 -16 -57
-39 -43 -11 6 -12 67 -2 78 17 17 38 -1 41 -35z m77 -4 c0 -33 -3 -40 -20 -40
-15 0 -21 8 -23 28 -5 39 5 59 25 55 14 -2 18 -13 18 -43z m253 4 c2 -27 -1
-38 -13 -43 -26 -10 -35 2 -35 45 0 36 2 40 23 37 17 -2 23 -10 25 -39z m77
-4 c0 -33 -3 -40 -20 -40 -15 0 -21 8 -23 28 -5 39 5 59 25 55 14 -2 18 -13
18 -43z m253 4 c3 -36 -16 -57 -39 -43 -11 6 -12 67 -2 78 17 17 38 -1 41 -35z
m77 -4 c0 -33 -3 -40 -20 -40 -15 0 -21 8 -23 28 -5 39 5 59 25 55 14 -2 18
-13 18 -43z m253 4 c3 -36 -16 -57 -39 -43 -11 6 -12 67 -2 78 17 17 38 -1 41
-35z m77 -4 c0 -33 -3 -40 -20 -40 -15 0 -21 8 -23 28 -5 39 5 59 25 55 14 -2
18 -13 18 -43z m253 4 c3 -36 -16 -57 -39 -43 -11 6 -12 67 -2 78 17 17 38 -1
41 -35z m77 -4 c0 -33 -3 -40 -20 -40 -15 0 -21 8 -23 28 -5 39 5 59 25 55 14
-2 18 -13 18 -43z m253 4 c3 -36 -16 -57 -39 -43 -11 6 -12 67 -2 78 17 17 38
-1 41 -35z m80 2 c4 -35 -11 -53 -35 -44 -13 5 -18 64 -6 77 17 16 38 -1 41
-33z m327 -6 c0 -33 -3 -40 -20 -40 -15 0 -21 8 -23 28 -5 39 5 59 25 55 14
-2 18 -13 18 -43z m330 0 c0 -33 -3 -40 -20 -40 -15 0 -21 8 -23 28 -5 39 5
59 25 55 14 -2 18 -13 18 -43z m330 0 c0 -33 -3 -40 -20 -40 -15 0 -21 8 -23
28 -5 39 5 59 25 55 14 -2 18 -13 18 -43z m330 0 c0 -33 -3 -40 -20 -40 -15 0
-21 8 -23 28 -5 39 5 59 25 55 14 -2 18 -13 18 -43z m330 0 c0 -33 -3 -40 -20
-40 -15 0 -21 8 -23 28 -5 39 5 59 25 55 14 -2 18 -13 18 -43z m333 3 c-2 -35
-7 -43 -23 -43 -15 0 -21 8 -23 28 -5 40 4 57 28 57 19 0 21 -5 18 -42z
m-4038 -4 c0 -13 -4 -24 -10 -24 -5 0 -10 14 -10 31 0 17 4 28 10 24 6 -3 10
-17 10 -31z m4345 1 c0 -16 -6 -30 -12 -32 -9 -3 -13 7 -13 32 0 25 4 35 13
33 6 -3 12 -17 12 -33z"/>
<path d="M40 4954 c0 -74 2 -85 16 -80 9 3 24 6 35 6 17 0 19 8 19 80 l0 80
-35 0 -35 0 0 -86z m60 1 c0 -14 -4 -25 -10 -25 -5 0 -10 11 -10 25 0 14 5 25
10 25 6 0 10 -11 10 -25z"/>
<path d="M120 4961 l0 -78 158 -6 c170 -5 3798 -5 4000 1 111 3 122 5 122 22
0 14 -7 18 -27 17 -26 -2 -28 1 -28 38 0 37 2 40 28 38 22 -1 27 2 27 23 l0
24 -120 0 -120 0 0 -24 c0 -21 5 -24 28 -23 25 2 27 -1 27 -38 0 -37 -2 -40
-27 -38 -18 1 -28 -4 -31 -15 -3 -9 -5 18 -6 61 l-1 77 -35 0 -35 0 -1 -77
c-1 -43 -4 -68 -6 -56 -4 19 -9 21 -34 16 -30 -6 -30 -5 -27 33 3 36 5 39 31
37 22 -1 27 2 27 23 l0 24 -120 0 -120 0 0 -24 c0 -21 5 -24 28 -23 24 2 27
-1 30 -35 3 -36 2 -38 -27 -38 -20 0 -31 -6 -34 -17 -3 -10 -5 17 -6 60 l-1
77 -35 0 -35 0 -1 -77 c-1 -43 -4 -69 -6 -57 -3 16 -10 20 -34 16 -30 -4 -30
-4 -27 34 3 36 5 39 31 37 22 -1 27 2 27 23 l0 24 -120 0 -120 0 0 -24 c0 -21
5 -24 28 -23 24 2 27 -1 30 -35 3 -36 2 -38 -27 -38 -20 0 -31 -6 -34 -17 -3
-10 -5 17 -6 60 l-1 77 -35 0 -35 0 -1 -77 c-1 -43 -4 -68 -6 -56 -4 19 -9 21
-34 16 -30 -6 -30 -5 -27 33 3 36 5 39 31 37 22 -1 27 2 27 23 l0 24 -121 0
c-119 0 -120 0 -117 -22 2 -17 10 -23 28 -23 22 0 25 -5 28 -37 3 -36 2 -38
-27 -38 -20 0 -31 -6 -34 -17 -3 -10 -5 17 -6 60 l-1 77 -35 0 -35 0 -1 -77
c-1 -43 -4 -68 -6 -56 -4 19 -9 21 -34 16 -28 -5 -29 -4 -29 31 0 40 20 56 45
36 13 -11 15 -8 15 19 l0 31 -121 0 c-119 0 -120 0 -117 -22 2 -17 10 -23 28
-23 22 0 25 -5 28 -39 3 -37 2 -38 -23 -34 -20 4 -29 1 -35 -16 -6 -14 -9 3
-9 57 l-1 77 -35 0 -35 0 -1 -77 c-1 -43 -4 -68 -6 -56 -4 19 -9 21 -34 16
-28 -5 -29 -4 -29 31 0 40 20 56 45 36 13 -11 15 -8 15 19 l0 31 -121 0 c-119
0 -120 0 -117 -22 2 -17 10 -23 28 -23 22 0 25 -5 28 -39 3 -37 2 -38 -23 -34
-20 4 -29 1 -35 -16 -6 -14 -9 3 -9 57 l-1 77 -35 0 -35 0 -1 -77 c-1 -43 -4
-68 -6 -55 -4 19 -7 21 -19 11 -23 -19 -44 -3 -44 36 0 39 21 55 45 35 13 -11
15 -8 15 19 l0 31 -121 0 c-119 0 -120 0 -117 -22 2 -19 8 -22 31 -20 28 4 28
2 25 -40 -3 -37 -6 -43 -26 -43 -12 0 -27 -7 -32 -15 -7 -10 -10 9 -10 63 l0
77 -35 0 -34 0 -4 -77 -3 -78 -2 78 -2 77 -121 0 c-119 0 -120 0 -117 -22 2
-19 8 -22 31 -20 26 3 27 1 27 -37 0 -39 -2 -41 -29 -41 -20 0 -31 -6 -34 -17
-3 -10 -5 17 -6 60 l-1 77 -35 0 -34 0 -4 -77 -3 -78 -2 78 -2 77 -121 0
c-119 0 -120 0 -117 -22 2 -19 8 -22 31 -20 26 3 27 1 27 -38 0 -40 -1 -42
-26 -37 -19 3 -28 -1 -34 -17 -6 -14 -9 3 -9 57 l-1 77 -35 0 -34 0 -4 -77 -3
-78 -2 78 -2 77 -121 0 c-119 0 -120 0 -117 -22 2 -17 10 -23 28 -23 22 0 25
-5 28 -39 3 -37 2 -38 -23 -34 -20 4 -29 1 -35 -16 -6 -14 -9 3 -9 57 l-1 77
-35 0 -34 0 -4 -77 -3 -78 -2 77 -2 77 -121 0 c-119 1 -120 1 -117 -21 2 -18
8 -22 27 -20 13 2 28 -2 32 -10 6 -9 9 -7 9 10 0 12 5 22 10 22 6 0 10 -10 11
-22 0 -13 3 -17 6 -10 2 6 13 12 23 12 10 0 21 -6 23 -12 3 -8 6 -7 6 4 1 9 6
20 11 23 6 4 10 -19 10 -62 -1 -58 -3 -65 -13 -48 -14 23 -67 29 -67 8 0 -7
-4 -13 -10 -13 -5 0 -10 6 -10 13 0 21 -62 13 -71 -9 -4 -11 -8 13 -8 59 l-1
77 -35 0 -34 0 -4 -77 -3 -78 -2 77 -2 77 -121 0 c-119 1 -120 1 -117 -21 2
-17 10 -23 28 -23 22 0 25 -5 28 -39 3 -37 2 -38 -23 -34 -20 4 -29 1 -35 -16
-6 -14 -9 3 -9 57 l-1 77 -35 0 -34 0 -4 -77 -3 -78 -2 77 -2 77 -121 0 c-119
1 -120 1 -117 -21 2 -17 10 -23 28 -23 22 0 25 -4 25 -40 0 -35 -3 -40 -23
-40 -12 0 -27 -7 -32 -15 -7 -10 -10 9 -10 63 l0 77 -35 0 -35 0 0 -79z m170
37 c0 -17 3 -19 9 -10 5 8 17 12 27 10 11 -2 24 3 31 12 10 12 12 2 12 -55 0
-57 -2 -67 -12 -55 -7 9 -20 14 -31 12 -10 -2 -22 2 -27 10 -7 10 -9 9 -9 -4
0 -9 -4 -20 -10 -23 -6 -4 -10 18 -10 59 0 37 4 66 10 66 6 0 10 -10 10 -22z
m331 0 c0 -13 3 -17 6 -10 2 6 13 12 23 12 10 0 21 -6 23 -12 3 -8 6 -7 6 4 1
9 6 20 11 23 6 4 10 -19 10 -62 -1 -58 -3 -65 -13 -48 -14 23 -67 29 -67 8 0
-7 -4 -13 -10 -13 -6 0 -10 27 -10 60 0 33 4 60 10 60 6 0 10 -10 11 -22z
m660 0 c0 -13 3 -17 6 -10 2 6 13 12 23 12 10 0 21 -6 23 -12 3 -8 6 -7 6 4 1
9 6 20 11 23 6 4 10 -19 10 -62 -1 -58 -3 -65 -13 -48 -14 23 -67 29 -67 8 0
-7 -4 -13 -10 -13 -6 0 -10 27 -10 60 0 33 4 60 10 60 6 0 10 -10 11 -22z
m330 0 c0 -13 3 -17 6 -10 2 6 13 12 23 12 10 0 21 -6 23 -12 3 -8 6 -7 6 4 1
9 6 20 11 23 6 4 10 -19 10 -62 -1 -58 -3 -65 -13 -48 -14 23 -67 29 -67 8 0
-7 -4 -13 -10 -13 -6 0 -10 27 -10 60 0 33 4 60 10 60 6 0 10 -10 11 -22z
m330 0 c0 -13 3 -17 6 -10 2 6 13 12 23 12 10 0 21 -6 23 -12 3 -8 6 -7 6 4 1
9 6 20 11 23 6 4 10 -17 10 -57 -1 -51 -3 -60 -13 -48 -15 19 -67 21 -67 3 0
-7 -4 -13 -10 -13 -6 0 -10 27 -10 60 0 33 4 60 10 60 6 0 10 -10 11 -22z
m330 0 c0 -13 3 -17 6 -10 2 6 13 12 24 12 10 0 19 -6 20 -12 0 -7 5 -2 12 12
l11 25 4 -32 c2 -18 2 -50 0 -70 -4 -37 -4 -37 -15 -13 -7 14 -12 19 -12 13
-1 -7 -10 -13 -20 -13 -11 0 -22 6 -24 13 -3 7 -6 6 -6 -5 -1 -9 -5 -20 -11
-23 -6 -4 -10 18 -10 59 0 37 4 66 10 66 6 0 10 -10 11 -22z m330 -6 c0 -11 3
-12 6 -4 2 6 13 12 23 12 10 0 21 -6 23 -12 3 -8 6 -7 6 4 1 9 6 20 11 23 6 4
10 -17 10 -57 -1 -51 -3 -60 -13 -48 -15 19 -67 21 -67 3 0 -7 -4 -13 -10 -13
-6 0 -10 27 -10 61 0 37 4 58 10 54 6 -3 10 -14 11 -23z m330 0 c0 -11 3 -12
6 -4 2 6 13 12 23 12 10 0 21 -6 23 -12 3 -8 6 -7 6 4 1 9 6 20 11 23 6 4 10
-17 10 -57 -1 -51 -3 -60 -13 -48 -15 19 -67 21 -67 3 0 -7 -4 -13 -10 -13 -6
0 -10 27 -10 61 0 37 4 58 10 54 6 -3 10 -14 11 -23z m330 0 c0 -11 3 -12 6
-4 2 6 13 12 23 12 10 0 21 -6 23 -12 3 -8 6 -7 6 4 1 9 6 20 11 23 6 4 10
-17 10 -54 0 -34 -4 -61 -10 -61 -5 0 -10 6 -10 13 0 7 -13 12 -30 12 -17 0
-30 -5 -30 -12 0 -7 -4 -13 -10 -13 -6 0 -10 27 -10 61 0 37 4 58 10 54 6 -3
10 -14 11 -23z m330 0 c0 -11 3 -12 6 -4 2 6 13 12 23 12 10 0 21 -6 23 -12 3
-8 6 -7 6 4 1 9 6 20 11 23 6 4 10 -17 10 -54 0 -34 -4 -61 -10 -61 -5 0 -10
6 -10 13 0 7 -13 12 -30 12 -17 0 -30 -5 -30 -12 0 -7 -4 -13 -10 -13 -6 0
-10 27 -10 61 0 37 4 58 10 54 6 -3 10 -14 11 -23z m330 0 c0 -11 3 -12 6 -4
2 6 13 12 23 12 10 0 21 -6 23 -12 3 -8 6 -7 6 4 1 9 6 20 11 23 6 4 10 -17
10 -54 0 -34 -4 -61 -10 -61 -5 0 -10 6 -10 13 0 7 -13 12 -30 12 -17 0 -30
-5 -30 -12 0 -7 -4 -13 -10 -13 -6 0 -10 27 -10 61 0 37 4 58 10 54 6 -3 10
-14 11 -23z m330 0 c0 -11 3 -12 6 -4 2 6 13 12 24 12 10 0 19 -6 20 -12 0 -7
5 -2 12 12 l11 25 4 -32 c2 -18 2 -50 0 -70 -4 -37 -4 -37 -15 -13 -7 14 -12
19 -12 13 -1 -7 -10 -13 -20 -13 -11 0 -22 6 -24 13 -3 7 -6 6 -6 -5 -1 -9 -5
-20 -11 -23 -6 -4 -10 18 -10 60 0 42 4 64 10 60 6 -3 10 -14 11 -23z m-4076
-37 c0 -33 -3 -40 -20 -40 -15 0 -21 8 -23 28 -5 39 5 59 25 55 14 -2 18 -13
18 -43z m253 2 c3 -34 1 -37 -22 -37 -23 0 -26 4 -26 33 0 38 7 49 30 45 9 -2
16 -16 18 -41z m80 0 c3 -34 1 -37 -22 -37 -23 0 -26 4 -26 33 0 38 7 49 30
45 9 -2 16 -16 18 -41z m247 3 c0 -29 -4 -36 -22 -38 -20 -3 -23 1 -23 31 0
38 7 49 30 45 10 -2 15 -15 15 -38z m83 -3 c3 -34 1 -37 -22 -37 -23 0 -26 4
-26 33 0 38 7 49 30 45 9 -2 16 -16 18 -41z m250 0 c3 -34 1 -37 -22 -37 -23
0 -26 4 -26 33 0 38 7 49 30 45 9 -2 16 -16 18 -41z m80 0 c3 -34 1 -37 -22
-37 -23 0 -26 4 -26 33 0 38 7 49 30 45 9 -2 16 -16 18 -41z m247 3 c0 -29 -4
-36 -22 -38 -20 -3 -23 1 -23 31 0 38 7 49 30 45 10 -2 15 -15 15 -38z m83 -3
c3 -34 1 -37 -22 -37 -23 0 -26 4 -26 33 0 38 7 49 30 45 9 -2 16 -16 18 -41z
m250 6 c2 -23 -2 -34 -16 -42 -11 -6 -22 -7 -26 -4 -8 9 -8 68 1 77 16 16 38
-1 41 -31z m80 -6 c3 -34 1 -37 -22 -37 -23 0 -26 4 -26 33 0 38 7 49 30 45 9
-2 16 -16 18 -41z m250 1 c3 -35 1 -38 -22 -38 -24 0 -26 4 -26 41 0 36 2 40
23 37 18 -2 23 -10 25 -40z m80 3 c4 -38 -7 -54 -31 -45 -17 6 -24 63 -10 78
17 16 38 -1 41 -33z m330 -4 c3 -34 1 -37 -22 -37 -23 0 -26 4 -26 33 0 38 7
49 30 45 9 -2 16 -16 18 -41z m330 0 c3 -34 1 -37 -22 -37 -23 0 -26 4 -26 33
0 38 7 49 30 45 9 -2 16 -16 18 -41z m330 0 c3 -34 1 -37 -22 -37 -23 0 -26 4
-26 33 0 38 7 49 30 45 9 -2 16 -16 18 -41z m330 0 c3 -34 1 -37 -22 -37 -23
0 -26 4 -26 33 0 38 7 49 30 45 9 -2 16 -16 18 -41z m330 0 c3 -34 1 -37 -22
-37 -23 0 -26 4 -26 33 0 38 7 49 30 45 9 -2 16 -16 18 -41z m330 0 c3 -34 1
-37 -22 -37 -23 0 -26 4 -26 33 0 38 7 49 30 45 9 -2 16 -16 18 -41z"/>
<path d="M4410 4960 c0 -69 2 -80 18 -80 9 0 27 -3 40 -6 22 -6 22 -5 22 80
l0 86 -40 0 -40 0 0 -80z m35 -5 c0 -16 -6 -30 -12 -32 -9 -3 -13 7 -13 32 0
25 4 35 13 33 6 -3 12 -17 12 -33z"/>
<path d="M40 4773 l0 -83 165 0 165 0 0 80 0 80 -125 0 -124 0 -4 -77 -3 -78
-2 76 -2 77 -35 4 -35 4 0 -83z m188 39 c18 18 34 -4 30 -43 -2 -28 -7 -34
-27 -34 -15 0 -27 -8 -32 -20 -5 -12 -8 9 -8 55 0 65 1 72 12 52 10 -17 15
-20 25 -10z m62 -43 c0 -33 -4 -59 -10 -59 -6 0 -10 29 -10 66 0 41 4 63 10
59 6 -3 10 -33 10 -66z m-112 3 c3 -39 1 -42 -22 -42 -23 0 -26 4 -26 38 0 43
7 54 30 50 10 -2 16 -17 18 -46z m-78 4 c0 -14 -4 -28 -10 -31 -6 -4 -10 7
-10 24 0 17 5 31 10 31 6 0 10 -11 10 -24z m220 -6 c0 -16 -4 -30 -10 -30 -5
0 -10 14 -10 30 0 17 5 30 10 30 6 0 10 -13 10 -30z"/>
<path d="M2100 4773 l0 -83 165 0 165 0 0 80 0 79 -165 3 -165 3 0 -82z m105
37 c12 10 18 10 29 1 12 -10 15 -8 19 11 l4 23 8 -23 c6 -18 10 -20 21 -11 11
9 18 8 29 -1 12 -10 15 -10 15 3 0 9 5 19 10 22 6 4 10 -19 10 -62 -1 -55 -3
-65 -13 -53 -7 9 -20 14 -31 12 -10 -2 -22 2 -27 10 -6 9 -9 7 -9 -9 0 -13 -4
-23 -10 -23 -5 0 -10 10 -10 23 0 16 -3 19 -9 8 -5 -8 -18 -12 -31 -8 -16 4
-24 0 -30 -16 -6 -16 -9 0 -9 53 0 57 3 69 10 51 8 -19 12 -21 24 -11z m-45
-35 c0 -14 -4 -25 -10 -25 -5 0 -10 11 -10 25 0 14 5 25 10 25 6 0 10 -11 10
-25z m220 -5 c0 -16 -4 -30 -10 -30 -5 0 -10 14 -10 30 0 17 5 30 10 30 6 0
10 -13 10 -30z"/>
<path d="M4160 4773 l0 -83 165 0 165 0 0 83 0 82 -165 0 -165 0 0 -82z m90
40 c0 -13 3 -13 15 -3 11 9 18 10 29 1 11 -9 15 -7 21 11 7 21 8 20 12 -9 2
-18 3 -50 1 -70 -4 -37 -4 -37 -15 -13 -7 14 -12 19 -12 13 -1 -7 -10 -13 -20
-13 -11 0 -22 6 -24 13 -3 7 -6 6 -6 -5 -1 -9 -5 -20 -11 -23 -6 -4 -10 18
-10 60 0 42 4 64 10 60 6 -3 10 -13 10 -22z m159 -45 c0 -51 -3 -67 -9 -52 -6
16 -15 20 -34 17 -25 -5 -26 -3 -26 35 0 45 13 60 36 41 12 -10 16 -9 21 9 10
38 13 24 12 -50z m41 2 c0 -16 -4 -32 -10 -35 -12 -7 -24 39 -16 61 9 23 26 7
26 -26z m-233 -17 c-3 -10 -5 -2 -5 17 0 19 2 27 5 18 2 -10 2 -26 0 -35z"/>
<path d="M40 4590 l0 -80 165 0 165 0 0 80 0 80 -165 0 -165 0 0 -80z m77 -37
c-2 -21 -4 -4 -4 37 0 41 2 58 4 38 2 -21 2 -55 0 -75z m117 75 c10 2 22 -2
27 -10 6 -9 9 -7 9 10 0 12 5 22 10 22 6 0 10 -7 10 -15 0 -8 6 -14 13 -12 7
1 13 -12 15 -35 4 -46 -15 -51 -21 -5 -3 28 -4 26 -5 -10 -2 -44 -22 -62 -22
-20 -1 20 -2 20 -11 4 -7 -11 -17 -16 -29 -12 -12 4 -22 -1 -29 -12 -8 -14
-10 0 -10 57 0 63 2 72 12 55 7 -13 19 -19 31 -17z m-56 -40 c-2 -35 -7 -43
-23 -43 -16 0 -21 8 -23 43 -3 39 -2 42 23 42 25 0 26 -3 23 -42z m-78 -3 c0
-14 -4 -25 -10 -25 -5 0 -10 11 -10 25 0 14 5 25 10 25 6 0 10 -11 10 -25z"/>
<path d="M2100 4590 l0 -80 165 0 165 0 0 80 0 80 -165 0 -165 0 0 -80z m110
37 c13 4 26 0 31 -8 6 -11 9 -8 9 9 0 12 5 22 10 22 6 0 10 -10 10 -22 0 -17
3 -19 9 -10 5 8 17 12 27 10 12 -2 24 4 31 17 10 17 12 9 13 -53 0 -46 -4 -71
-10 -67 -5 3 -10 13 -10 22 0 13 -3 13 -15 3 -12 -10 -18 -10 -30 0 -12 10
-15 10 -15 -4 0 -9 -4 -16 -10 -16 -5 0 -10 10 -10 23 -1 20 -2 20 -11 4 -7
-12 -17 -15 -34 -11 -17 4 -24 1 -28 -13 -3 -10 -5 16 -5 57 -1 52 2 68 8 53
6 -16 14 -20 30 -16z m170 -42 c0 -19 -4 -35 -10 -35 -5 0 -10 16 -10 35 0 19
5 35 10 35 6 0 10 -16 10 -35z m-220 0 c0 -14 -4 -25 -10 -25 -5 0 -10 11 -10
25 0 14 5 25 10 25 6 0 10 -11 10 -25z"/>
<path d="M4160 4590 l0 -80 165 0 165 0 0 80 0 80 -165 0 -165 0 0 -80z m167
-37 c-3 -33 -5 -35 -12 -15 -6 18 -10 20 -21 11 -11 -9 -18 -8 -29 1 -12 10
-15 10 -15 -3 0 -9 -4 -19 -10 -22 -6 -4 -10 18 -10 59 0 37 4 66 10 66 6 0
10 -10 11 -22 0 -13 3 -17 6 -10 2 6 13 12 23 12 10 0 21 -6 23 -12 3 -7 6 -4
6 8 1 11 4 24 9 28 9 10 15 -51 9 -101z m82 35 c-1 -40 -3 -65 -6 -55 -3 12
-13 17 -31 15 -25 -3 -27 0 -30 40 -3 41 -2 42 27 42 21 0 31 5 31 15 0 8 2
15 5 15 3 0 4 -33 4 -72z m39 -10 c-5 -37 -28 -33 -28 5 0 18 3 37 7 41 10 10
25 -21 21 -46z"/>
<path d="M40 4404 c0 -74 2 -85 16 -80 9 3 24 6 35 6 17 0 19 8 19 80 l0 80
-35 0 -35 0 0 -86z m60 1 c0 -14 -4 -25 -10 -25 -5 0 -10 11 -10 25 0 14 5 25
10 25 6 0 10 -11 10 -25z"/>
<path d="M120 4410 l0 -80 110 -1 c61 -1 116 -2 123 -3 8 -1 13 23 15 82 l3
82 -126 0 -125 0 0 -80z m115 38 c26 4 26 3 23 -39 -3 -38 -6 -44 -26 -44 -13
0 -27 -7 -32 -15 -7 -10 -10 10 -9 60 0 52 3 68 9 54 6 -17 15 -20 35 -16z
m55 -37 c0 -33 -4 -63 -10 -66 -6 -4 -10 18 -10 59 0 37 4 66 10 66 6 0 10
-26 10 -59z m-115 -6 c0 -33 -3 -40 -20 -40 -15 0 -21 8 -23 28 -5 39 5 59 25
55 14 -2 18 -13 18 -43z m145 0 c0 -19 -4 -35 -10 -35 -5 0 -10 16 -10 35 0
19 5 35 10 35 6 0 10 -16 10 -35z"/>
<path d="M700 4404 c0 -74 2 -85 16 -80 9 3 24 6 34 6 17 0 20 10 23 73 l3 72
2 -72 2 -73 160 0 159 0 4 73 3 72 2 -72 2 -73 160 0 159 0 4 73 3 72 2 -72 2
-73 160 0 159 0 4 73 3 72 2 -72 2 -73 160 0 159 0 4 73 3 72 2 -72 2 -73 143
0 c78 0 152 -3 165 -6 22 -6 22 -5 22 80 l0 86 -865 0 -865 0 0 -86z m1511 41
c21 0 24 -4 24 -40 0 -35 -3 -40 -23 -40 -13 0 -27 -7 -32 -15 -7 -10 -10 10
-9 60 0 46 3 67 8 55 5 -12 17 -20 32 -20z m-1324 -4 c9 9 16 9 27 0 12 -10
15 -8 19 11 l4 23 8 -23 c6 -18 10 -20 21 -11 11 9 17 9 28 0 11 -9 15 -7 21
11 7 21 8 20 12 -9 2 -18 3 -50 1 -70 -4 -37 -4 -37 -15 -13 -7 14 -12 19 -12
13 -1 -7 -10 -13 -21 -13 -11 0 -20 6 -21 13 0 6 -5 1 -11 -13 l-11 -25 -5 23
c-3 19 -6 21 -18 11 -7 -6 -20 -9 -29 -6 -8 4 -19 -1 -24 -11 -8 -12 -10 2
-10 53 0 61 1 67 12 47 10 -17 16 -19 24 -11z m331 1 c18 18 34 -4 30 -43 -2
-28 -7 -34 -26 -34 -13 0 -27 -7 -32 -15 -7 -10 -10 8 -9 55 0 62 1 67 12 47
10 -17 15 -20 25 -10z m62 1 c0 -13 3 -13 15 -3 12 10 19 10 28 1 8 -8 14 -6
24 11 11 20 12 15 13 -45 0 -43 -4 -66 -10 -62 -5 3 -10 14 -11 23 0 11 -3 12
-6 5 -2 -7 -13 -13 -23 -13 -10 0 -21 6 -23 13 -3 7 -6 6 -6 -5 -1 -9 -5 -20
-11 -23 -6 -4 -10 18 -10 60 0 42 4 64 10 60 6 -3 10 -13 10 -22z m266 -3 c21
19 36 0 32 -41 -2 -28 -7 -34 -26 -34 -13 0 -27 -7 -32 -15 -7 -10 -10 8 -9
55 0 54 2 65 10 46 8 -20 12 -21 25 -11z m64 3 c0 -13 3 -13 15 -3 11 9 18 10
29 1 11 -9 15 -7 21 11 7 21 8 20 12 -9 2 -18 3 -50 1 -70 -4 -37 -4 -37 -15
-13 -7 14 -12 19 -12 13 -1 -7 -10 -13 -20 -13 -11 0 -22 6 -24 13 -3 7 -6 6
-6 -5 -1 -9 -5 -20 -11 -23 -6 -4 -10 18 -10 60 0 42 4 64 10 60 6 -3 10 -13
10 -22z m266 -3 c21 19 36 0 32 -41 -2 -28 -7 -34 -26 -34 -13 0 -27 -7 -32
-15 -7 -10 -10 8 -9 55 0 54 2 65 10 46 8 -20 12 -21 25 -11z m64 3 c0 -13 3
-13 15 -3 11 9 18 10 29 1 11 -9 15 -7 21 11 7 21 8 20 12 -9 2 -18 3 -50 1
-70 -4 -37 -4 -37 -15 -13 -7 14 -12 19 -12 13 -1 -7 -10 -13 -20 -13 -11 0
-22 6 -24 13 -3 7 -6 6 -6 -5 -1 -9 -5 -20 -11 -23 -6 -4 -10 18 -10 60 0 42
4 64 10 60 6 -3 10 -13 10 -22z m331 5 c0 -13 3 -17 6 -10 2 6 13 12 24 12 10
0 19 -6 20 -12 0 -7 5 -2 12 12 l11 25 4 -32 c2 -18 2 -50 0 -70 -4 -37 -4
-37 -15 -13 -7 14 -12 19 -12 13 -1 -7 -10 -13 -20 -13 -11 0 -22 6 -24 13 -3
7 -6 6 -6 -5 -1 -9 -5 -20 -11 -23 -6 -4 -10 18 -10 59 0 37 4 66 10 66 6 0
10 -10 11 -22z m-1436 -43 c0 -33 -3 -40 -20 -40 -15 0 -21 8 -23 28 -5 39 5
59 25 55 14 -2 18 -13 18 -43z m243 36 c8 -5 12 -22 10 -42 -2 -26 -8 -34 -23
-34 -15 0 -21 8 -23 28 -6 49 7 67 36 48z m87 -36 c0 -33 -3 -40 -20 -40 -15
0 -21 8 -23 28 -5 39 5 59 25 55 14 -2 18 -13 18 -43z m244 31 c20 -23 10 -71
-14 -71 -15 0 -21 8 -23 28 -6 51 13 72 37 43z m86 -31 c0 -33 -3 -40 -20 -40
-15 0 -21 8 -23 28 -5 39 5 59 25 55 14 -2 18 -13 18 -43z m253 -8 c-2 -24 -8
-32 -23 -32 -15 0 -21 8 -23 28 -5 45 4 60 28 47 16 -9 20 -19 18 -43z m70 44
c8 -5 12 -22 10 -42 -2 -26 -8 -34 -23 -34 -15 0 -21 8 -23 28 -6 49 7 67 36
48z m250 0 c8 -5 12 -22 10 -42 -2 -26 -8 -34 -23 -34 -15 0 -21 8 -23 28 -6
49 7 67 36 48z m87 -36 c0 -33 -3 -40 -20 -40 -15 0 -21 8 -23 28 -5 39 5 59
25 55 14 -2 18 -13 18 -43z m225 0 c0 -19 -4 -35 -10 -35 -5 0 -10 16 -10 35
0 19 5 35 10 35 6 0 10 -16 10 -35z m-1620 0 c0 -14 -4 -25 -10 -25 -5 0 -10
11 -10 25 0 14 5 25 10 25 6 0 10 -11 10 -25z"/>
<path d="M3170 4404 c0 -74 2 -85 16 -80 9 3 63 6 120 6 96 0 104 1 104 19 0
15 -6 19 -27 18 -26 -2 -28 1 -28 38 0 37 2 40 27 37 19 -2 28 2 31 15 3 10 5
-15 6 -54 l1 -73 160 0 c152 0 160 1 160 19 0 15 -6 19 -27 18 -25 -2 -28 2
-31 32 -4 41 11 60 32 41 13 -10 17 -9 25 11 8 19 10 8 10 -48 1 -70 2 -73 25
-73 13 0 31 -3 40 -6 14 -5 16 6 16 80 l0 86 -330 0 -330 0 0 -86z m90 39 c0
-13 3 -13 15 -3 11 9 18 10 29 1 11 -9 15 -7 21 11 7 21 8 20 12 -9 2 -18 3
-50 1 -70 -4 -37 -4 -37 -15 -13 -7 14 -12 19 -12 13 -1 -7 -10 -13 -20 -13
-11 0 -22 6 -24 13 -3 7 -6 6 -6 -5 -1 -9 -5 -20 -11 -23 -6 -4 -10 18 -10 60
0 42 4 64 10 60 6 -3 10 -13 10 -22z m266 -3 c21 19 36 0 32 -41 -3 -30 -6
-34 -30 -32 -18 1 -28 -4 -31 -15 -3 -9 -5 15 -5 53 -1 54 1 64 9 46 8 -20 12
-21 25 -11z m64 3 c0 -13 3 -13 15 -3 11 9 18 10 29 1 11 -9 15 -7 21 11 7 21
8 20 12 -9 2 -18 3 -50 1 -70 -4 -37 -4 -37 -15 -13 -7 14 -12 19 -12 13 -1
-7 -10 -13 -20 -13 -11 0 -22 6 -24 13 -3 7 -6 6 -6 -5 -1 -9 -5 -20 -11 -23
-6 -4 -10 18 -10 60 0 42 4 64 10 60 6 -3 10 -13 10 -22z m-115 -39 c0 -32 -3
-39 -20 -39 -15 0 -21 8 -23 28 -5 39 3 56 25 53 14 -2 18 -12 18 -42z m313
-5 c-5 -35 -28 -36 -28 -1 0 16 3 32 7 36 11 11 25 -10 21 -35z"/>
<path d="M4160 4404 c0 -74 2 -85 16 -80 9 3 63 6 120 6 96 0 104 1 104 19 0
15 -6 19 -27 18 -26 -2 -28 1 -28 38 0 37 2 40 28 38 22 -1 27 2 27 23 l0 24
-120 0 -120 0 0 -86z m91 38 c0 -11 3 -12 6 -4 2 6 13 12 24 12 10 0 19 -6 20
-12 0 -7 5 -2 12 12 l11 25 4 -32 c2 -18 2 -50 0 -70 -4 -37 -4 -37 -15 -13
-7 14 -12 19 -12 13 -1 -7 -10 -13 -20 -13 -11 0 -22 6 -24 13 -3 7 -6 6 -6
-5 -1 -9 -5 -20 -11 -23 -6 -4 -10 18 -10 60 0 42 4 64 10 60 6 -3 10 -14 11
-23z"/>
<path d="M4410 4410 c0 -78 1 -80 24 -80 13 0 31 -3 40 -6 14 -5 16 6 16 80
l0 86 -40 0 -40 0 0 -80z m35 -5 c0 -16 -6 -30 -12 -32 -9 -3 -13 7 -13 32 0
25 4 35 13 33 6 -3 12 -17 12 -33z"/>
<path d="M40 4223 l0 -83 35 0 35 0 0 79 0 79 -35 4 -35 4 0 -83z m60 2 c0
-14 -4 -25 -10 -25 -5 0 -10 11 -10 25 0 14 5 25 10 25 6 0 10 -11 10 -25z"/>
<path d="M238 4302 l-118 -3 0 -79 0 -80 125 0 125 0 0 79 c0 44 -3 81 -7 83
-5 2 -61 2 -125 0z m-6 -37 c20 0 23 -6 26 -44 3 -42 3 -43 -23 -39 -20 4 -29
1 -35 -16 -6 -14 -9 2 -9 54 -1 51 2 70 9 60 5 -8 20 -15 32 -15z m58 -46 c0
-33 -4 -59 -10 -59 -6 0 -10 29 -10 66 0 41 4 63 10 59 6 -3 10 -33 10 -66z
m-112 3 c3 -39 1 -42 -22 -42 -23 0 -26 4 -26 38 0 43 7 54 30 50 10 -2 16
-17 18 -46z m142 3 c0 -19 -4 -35 -10 -35 -5 0 -10 16 -10 35 0 19 5 35 10 35
6 0 10 -16 10 -35z"/>
<path d="M700 4223 l0 -83 865 0 865 0 0 86 c0 74 -2 85 -16 80 -9 -3 -83 -6
-164 -6 l-149 0 -4 -72 -3 -73 -2 73 -2 72 -160 0 -159 0 -4 -72 -3 -73 -2 73
-2 72 -160 0 -159 0 -4 -72 -3 -73 -2 73 -2 72 -160 0 -159 0 -4 -72 -3 -73
-2 73 -2 72 -160 0 -159 0 -4 -77 -3 -78 -2 76 -2 77 -35 4 -35 4 0 -83z m190
42 c10 3 22 0 26 -7 6 -9 10 -5 15 12 l7 25 7 -23 c6 -18 10 -20 21 -11 11 9
17 9 28 0 11 -9 15 -7 21 11 7 21 8 20 12 -9 2 -18 3 -50 1 -70 -4 -37 -4 -37
-15 -13 -7 14 -12 19 -12 13 -1 -7 -10 -13 -20 -13 -11 0 -22 6 -24 13 -3 6
-6 2 -6 -10 -1 -13 -5 -23 -11 -23 -5 0 -10 10 -11 23 0 12 -3 16 -6 10 -2 -7
-13 -13 -24 -13 -10 0 -19 6 -20 13 0 6 -7 -1 -14 -18 -13 -29 -14 -27 -14 45
0 57 2 71 10 57 7 -11 17 -16 29 -12z m332 0 c20 0 23 -5 23 -40 0 -35 -3 -40
-23 -40 -13 0 -27 -7 -32 -15 -7 -10 -10 8 -10 55 0 48 3 65 10 55 5 -8 20
-15 32 -15z m58 -2 c0 -13 3 -13 15 -3 11 9 18 10 29 1 11 -9 15 -7 21 11 7
21 8 20 12 -9 2 -18 2 -50 0 -70 -3 -33 -5 -35 -12 -15 -6 18 -10 20 -21 11
-11 -9 -18 -8 -29 1 -12 10 -15 10 -15 -3 0 -9 -4 -19 -10 -22 -6 -4 -10 18
-10 60 0 42 4 64 10 60 6 -3 10 -13 10 -22z m268 -1 c25 3 27 0 27 -37 0 -35
-3 -40 -23 -40 -12 0 -27 -7 -32 -15 -7 -10 -9 7 -9 55 1 39 3 62 6 52 3 -12
13 -17 31 -15z m62 1 c0 -13 3 -13 15 -3 11 9 18 10 29 1 11 -9 15 -7 21 11 7
21 8 20 12 -9 2 -18 2 -50 0 -70 -3 -33 -5 -35 -12 -15 -6 18 -10 20 -21 11
-11 -9 -18 -8 -29 1 -12 10 -15 10 -15 -3 0 -9 -4 -19 -10 -22 -6 -4 -10 18
-10 60 0 42 4 64 10 60 6 -3 10 -13 10 -22z m268 -1 c25 3 27 0 27 -37 0 -35
-3 -40 -23 -40 -13 0 -27 -7 -32 -15 -7 -10 -9 8 -9 55 1 39 3 62 6 52 3 -12
13 -17 31 -15z m62 1 c0 -13 3 -13 15 -3 11 9 18 10 29 1 11 -9 15 -7 21 11 7
21 8 20 12 -9 2 -18 2 -50 0 -70 -3 -33 -5 -35 -12 -15 -6 18 -10 20 -21 11
-11 -9 -18 -8 -29 1 -12 10 -15 10 -15 -3 0 -9 -4 -19 -10 -22 -6 -4 -10 18
-10 60 0 42 4 64 10 60 6 -3 10 -13 10 -22z m268 -1 c25 3 27 0 27 -37 0 -35
-3 -40 -23 -40 -13 0 -27 -7 -32 -15 -7 -10 -9 8 -9 55 1 39 3 62 6 52 3 -12
13 -17 31 -15z m62 1 c0 -13 3 -13 15 -3 11 9 18 10 29 1 11 -9 15 -7 21 11 7
21 8 20 12 -9 2 -18 2 -50 0 -70 -3 -33 -5 -35 -12 -15 -6 18 -10 20 -21 11
-11 -9 -18 -8 -29 1 -12 10 -15 10 -15 -3 0 -9 -4 -19 -10 -22 -6 -4 -10 18
-10 60 0 42 4 64 10 60 6 -3 10 -13 10 -22z m-1435 -38 c0 -34 -3 -40 -22 -43
-21 -3 -23 1 -23 36 0 43 7 54 30 50 10 -2 15 -15 15 -43z m243 36 c8 -5 12
-22 10 -42 -2 -26 -8 -34 -23 -34 -15 0 -21 8 -23 28 -6 49 7 67 36 48z m87
-36 c0 -33 -3 -40 -20 -40 -15 0 -21 8 -23 28 -5 39 5 59 25 55 14 -2 18 -13
18 -43z m243 36 c8 -5 12 -22 10 -42 -2 -26 -8 -34 -23 -34 -15 0 -21 8 -23
28 -6 49 7 67 36 48z m87 -36 c0 -33 -3 -40 -20 -40 -15 0 -21 8 -23 28 -5 39
5 59 25 55 14 -2 18 -13 18 -43z m243 36 c8 -5 12 -22 10 -42 -2 -26 -8 -34
-23 -34 -15 0 -21 8 -23 28 -6 49 7 67 36 48z m87 -36 c0 -33 -3 -40 -20 -40
-15 0 -21 8 -23 28 -5 39 5 59 25 55 14 -2 18 -13 18 -43z m239 39 c17 -7 23
-69 7 -78 -20 -13 -41 7 -41 38 0 43 7 50 34 40z m91 -39 c0 -33 -3 -40 -20
-40 -15 0 -21 8 -23 28 -5 39 5 59 25 55 14 -2 18 -13 18 -43z m225 0 c0 -19
-4 -35 -10 -35 -5 0 -10 16 -10 35 0 19 5 35 10 35 6 0 10 -16 10 -35z m-1620
0 c0 -14 -4 -25 -10 -25 -5 0 -10 11 -10 25 0 14 5 25 10 25 6 0 10 -11 10
-25z"/>
<path d="M3170 4223 l0 -83 330 0 330 0 0 83 0 82 -330 0 -330 0 0 -82z m90
40 c0 -13 3 -13 15 -3 11 9 18 10 29 1 11 -9 15 -7 21 11 7 21 8 20 12 -9 2
-18 2 -50 0 -70 -3 -33 -5 -35 -12 -15 -6 18 -10 20 -21 11 -11 -9 -18 -8 -29
1 -12 10 -15 10 -15 -3 0 -9 -4 -19 -10 -22 -6 -4 -10 18 -10 60 0 42 4 64 10
60 6 -3 10 -13 10 -22z m159 -40 c-1 -38 -3 -60 -6 -50 -3 11 -11 16 -21 13
-28 -9 -44 8 -40 45 3 30 6 34 31 31 19 -2 27 2 27 13 0 8 2 15 5 15 3 0 4
-30 4 -67z m109 40 c25 2 27 -1 30 -42 l3 -44 -30 6 c-23 5 -31 2 -34 -11 -3
-9 -5 15 -5 53 0 39 2 62 5 53 3 -11 13 -16 31 -15z m62 0 c0 -13 3 -13 15 -3
12 10 18 10 30 0 12 -10 15 -10 15 3 0 9 5 19 10 22 6 4 10 -19 10 -62 -1 -55
-3 -65 -13 -53 -7 9 -20 14 -31 12 -10 -2 -22 2 -27 10 -6 9 -9 7 -9 -9 0 -13
-4 -23 -10 -23 -6 0 -10 29 -10 66 0 41 4 63 10 59 6 -3 10 -13 10 -22z m159
-45 c-1 -40 -4 -63 -6 -51 -4 19 -9 21 -34 16 l-30 -6 3 44 c3 41 5 44 31 41
19 -2 27 2 27 13 0 8 2 15 5 15 3 0 4 -33 4 -72z m-274 7 c0 -33 -3 -40 -20
-40 -15 0 -21 8 -23 28 -5 39 5 59 25 55 14 -2 18 -13 18 -43z m311 20 c8 -21
-4 -67 -16 -60 -13 8 -13 75 0 75 6 0 13 -7 16 -15z"/>
<path d="M4160 4223 l0 -83 165 0 165 0 0 83 0 82 -165 0 -165 0 0 -82z m90
40 c0 -13 3 -13 15 -3 11 9 18 10 29 1 11 -9 15 -7 21 11 7 21 8 20 12 -9 2
-18 3 -50 1 -70 -4 -37 -4 -37 -15 -13 -7 14 -12 19 -12 13 -1 -7 -10 -13 -20
-13 -11 0 -22 6 -24 13 -3 7 -6 6 -6 -5 -1 -9 -5 -20 -11 -23 -6 -4 -10 18
-10 60 0 42 4 64 10 60 6 -3 10 -13 10 -22z m159 -45 c0 -51 -3 -67 -9 -52 -6
17 -15 20 -35 16 -26 -4 -26 -3 -23 39 3 41 5 44 31 41 19 -2 27 2 27 13 0 8
2 15 5 15 3 0 5 -33 4 -72z m37 27 c8 -21 -4 -67 -16 -60 -13 8 -13 75 0 75 6
0 13 -7 16 -15z"/>
<path d="M40 4040 l0 -80 165 0 165 0 0 80 0 80 -165 0 -165 0 0 -80z m77 -37
c-2 -21 -4 -4 -4 37 0 41 2 58 4 38 2 -21 2 -55 0 -75z m119 75 c22 4 24 1 24
-37 0 -37 -2 -41 -25 -41 -13 0 -29 -8 -34 -17 -8 -13 -10 1 -10 57 0 58 3 70
11 54 7 -15 16 -20 34 -16z m54 -38 c0 -33 -4 -60 -10 -60 -6 0 -10 27 -10 60
0 33 4 60 10 60 6 0 10 -27 10 -60z m-110 0 c0 -36 -2 -40 -25 -40 -22 0 -25
4 -25 40 0 36 3 40 25 40 23 0 25 -4 25 -40z m140 -5 c0 -19 -4 -35 -10 -35
-5 0 -10 16 -10 35 0 19 5 35 10 35 6 0 10 -16 10 -35z m-220 0 c0 -14 -4 -25
-10 -25 -5 0 -10 11 -10 25 0 14 5 25 10 25 6 0 10 -11 10 -25z"/>
<path d="M700 4040 l0 -80 163 0 163 0 0 80 -1 80 -162 0 -163 0 0 -80z m77
-37 c-2 -21 -4 -4 -4 37 0 41 2 58 4 38 2 -21 2 -55 0 -75z m117 74 c25 5 26
3 26 -36 0 -37 -2 -41 -25 -41 -13 0 -29 -8 -34 -17 -8 -13 -10 1 -10 57 0 52
3 68 9 54 6 -16 15 -20 34 -17z m56 3 c0 -13 5 -18 15 -14 12 5 15 -2 15 -31
0 -29 -3 -36 -15 -31 -9 3 -15 0 -15 -9 0 -8 -4 -15 -10 -15 -6 0 -10 27 -10
60 0 33 4 60 10 60 6 0 10 -9 10 -20z m-110 -40 c0 -36 -2 -40 -25 -40 -22 0
-25 4 -25 40 0 36 3 40 25 40 23 0 25 -4 25 -40z m-80 -5 c0 -14 -4 -25 -10
-25 -5 0 -10 11 -10 25 0 14 5 25 10 25 6 0 10 -11 10 -25z"/>
<path d="M3500 4040 l0 -80 165 0 165 0 0 80 0 80 -165 0 -165 0 0 -80z m167
-37 c-3 -33 -5 -35 -12 -16 -6 18 -11 20 -25 13 -11 -6 -21 -5 -28 2 -9 9 -12
8 -12 -4 0 -9 -4 -20 -10 -23 -6 -4 -10 18 -10 59 0 37 4 66 10 66 6 0 10 -10
11 -22 0 -13 3 -17 6 -10 2 6 13 12 23 12 10 0 21 -6 23 -12 3 -7 6 -4 6 8 1
11 4 24 9 28 9 10 15 -51 9 -101z m82 35 c0 -51 -3 -67 -9 -52 -6 16 -15 20
-34 17 -25 -5 -26 -3 -26 37 0 42 0 42 30 37 25 -6 30 -3 30 13 0 11 2 20 5
20 3 0 5 -33 4 -72z m39 -4 c-5 -42 -28 -43 -28 -1 0 18 3 37 7 41 12 12 25
-11 21 -40z"/>
<path d="M4160 4040 l0 -80 165 0 165 0 0 80 0 80 -165 0 -165 0 0 -80z m168
-37 c-3 -33 -5 -35 -13 -18 -11 22 -65 29 -65 8 0 -6 -4 -15 -10 -18 -6 -4
-10 18 -10 59 0 37 4 66 10 66 6 0 10 -10 11 -22 0 -13 3 -17 6 -10 2 6 13 12
23 12 10 0 21 -6 23 -12 3 -7 6 -4 6 8 1 11 4 24 9 28 9 10 15 -50 10 -101z
m81 35 c-1 -40 -3 -65 -6 -55 -3 11 -14 17 -34 17 -27 0 -29 2 -29 41 0 39 1
41 26 36 20 -3 28 0 31 14 10 35 13 19 12 -53z m39 -10 c-5 -37 -28 -33 -28 5
0 18 3 37 7 41 10 10 25 -21 21 -46z"/>
<path d="M40 3857 l0 -83 35 4 35 4 0 79 0 79 -35 0 -35 0 0 -83z m60 -2 c0
-14 -4 -25 -10 -25 -5 0 -10 11 -10 25 0 14 5 25 10 25 6 0 10 -11 10 -25z"/>
<path d="M120 3860 l0 -80 115 0 c63 0 118 -1 123 -2 4 -2 8 34 10 80 l3 82
-126 0 -125 0 0 -80z m111 35 c21 0 24 -4 24 -40 0 -35 -3 -40 -23 -40 -13 0
-27 -7 -32 -15 -7 -10 -10 10 -9 60 0 46 3 67 8 55 5 -12 17 -20 32 -20z m59
-34 c0 -33 -4 -63 -10 -66 -6 -4 -10 18 -10 59 0 37 4 66 10 66 6 0 10 -26 10
-59z m-115 -6 c0 -33 -3 -40 -20 -40 -15 0 -21 8 -23 28 -5 39 5 59 25 55 14
-2 18 -13 18 -43z m145 0 c0 -19 -4 -35 -10 -35 -5 0 -10 16 -10 35 0 19 5 35
10 35 6 0 10 -16 10 -35z"/>
<path d="M700 3854 c0 -74 2 -85 16 -80 9 3 24 6 35 6 17 0 19 8 19 80 l0 80
-35 0 -35 0 0 -86z m60 1 c0 -14 -4 -25 -10 -25 -5 0 -10 11 -10 25 0 14 5 25
10 25 6 0 10 -11 10 -25z"/>
<path d="M780 3860 l0 -80 115 0 c63 0 118 0 122 0 4 0 8 36 9 80 l1 80 -124
0 -123 0 0 -80z m111 35 c21 0 24 -4 24 -40 0 -35 -3 -40 -23 -40 -13 0 -27
-7 -32 -15 -7 -10 -10 10 -9 60 0 46 3 67 8 55 5 -12 17 -20 32 -20z m59 5 c0
-13 5 -18 15 -14 12 5 15 -2 15 -31 0 -29 -3 -36 -15 -31 -9 3 -15 0 -15 -9 0
-7 -4 -17 -10 -20 -6 -4 -10 18 -10 59 0 37 4 66 10 66 6 0 10 -9 10 -20z
m-115 -45 c0 -33 -3 -40 -20 -40 -15 0 -21 8 -23 28 -5 39 5 59 25 55 14 -2
18 -13 18 -43z"/>
<path d="M3500 3858 l0 -83 165 0 165 0 0 83 0 82 -165 0 -165 0 0 -82z m249
0 c-1 -40 -3 -65 -6 -55 -4 14 -11 17 -30 12 -20 -5 -26 -1 -31 17 -6 20 -7
19 -13 -12 -5 -34 -6 -34 -16 -11 -6 16 -12 20 -17 13 -11 -18 -34 -14 -39 6
-4 13 -5 12 -6 -5 0 -12 -5 -25 -11 -28 -6 -4 -10 18 -10 59 0 37 4 66 10 66
6 0 10 -10 10 -22 0 -17 3 -19 9 -10 5 8 17 12 27 10 11 -2 24 3 31 12 11 13
12 11 13 -10 0 -18 3 -21 9 -11 6 9 18 11 35 7 22 -5 26 -3 26 14 0 11 2 20 5
20 3 0 4 -33 4 -72z m37 8 c7 -28 -2 -49 -17 -41 -12 8 -12 65 1 65 5 0 12
-11 16 -24z m-226 -12 c0 -14 -4 -23 -10 -19 -5 3 -10 15 -10 26 0 10 5 19 10
19 6 0 10 -12 10 -26z"/>
<path d="M4160 3858 l0 -83 165 0 165 0 0 83 0 82 -165 0 -165 0 0 -82z m249
0 c-1 -40 -3 -65 -6 -55 -3 12 -13 17 -31 15 -25 -3 -27 0 -30 41 l-3 44 30
-6 c26 -6 31 -3 31 13 0 11 2 20 5 20 3 0 4 -33 4 -72z m-158 34 c0 -11 3 -12
6 -4 2 6 13 12 24 12 10 0 19 -6 20 -12 0 -7 5 -2 12 12 l11 25 4 -32 c2 -18
1 -50 -1 -70 -3 -32 -5 -35 -11 -16 -7 19 -11 20 -27 10 -16 -10 -21 -9 -28 1
-6 10 -10 8 -16 -10 -7 -22 -7 -22 -15 7 -4 17 -8 23 -9 15 -2 -10 -6 -7 -14
9 -9 19 -8 26 6 36 9 7 17 20 17 29 0 22 20 10 21 -12z m194 -37 c0 -16 -6
-30 -12 -32 -9 -3 -13 7 -13 32 0 25 4 35 13 33 6 -3 12 -17 12 -33z"/>
<path d="M40 3676 l0 -86 35 0 35 0 0 80 c0 72 -2 80 -19 80 -11 0 -26 3 -35
6 -14 5 -16 -6 -16 -80z m60 -1 c0 -14 -4 -25 -10 -25 -5 0 -10 11 -10 25 0
14 5 25 10 25 6 0 10 -11 10 -25z"/>
<path d="M233 3752 l-113 -3 0 -79 0 -80 125 0 126 0 -3 82 c-2 45 -7 82 -13
82 -5 1 -61 0 -122 -2z m-1 -37 c20 0 23 -6 26 -44 3 -42 3 -43 -23 -39 -20 4
-29 1 -35 -16 -6 -14 -9 2 -9 54 -1 51 2 70 9 60 5 -8 20 -15 32 -15z m58 -46
c0 -33 -4 -59 -10 -59 -6 0 -10 29 -10 66 0 41 4 63 10 59 6 -3 10 -33 10 -66z
m-112 3 c3 -39 1 -42 -22 -42 -23 0 -26 4 -26 38 0 43 7 54 30 50 10 -2 16
-17 18 -46z m142 3 c0 -19 -4 -35 -10 -35 -5 0 -10 16 -10 35 0 19 5 35 10 35
6 0 10 -16 10 -35z"/>
<path d="M700 3676 l0 -86 35 0 35 0 0 80 c0 72 -2 80 -19 80 -11 0 -26 3 -35
6 -14 5 -16 -6 -16 -80z m60 -1 c0 -14 -4 -25 -10 -25 -5 0 -10 11 -10 25 0
14 5 25 10 25 6 0 10 -11 10 -25z"/>
<path d="M893 3752 l-113 -3 0 -79 0 -80 123 0 124 0 -1 82 c-1 45 -6 82 -11
83 -6 0 -61 -1 -122 -3z m-1 -37 c20 0 23 -6 26 -44 3 -42 3 -43 -23 -39 -20
4 -29 1 -35 -16 -6 -14 -9 2 -9 54 -1 51 2 70 9 60 5 -8 20 -15 32 -15z m58 0
c0 -9 6 -12 15 -9 12 5 15 -2 15 -31 0 -29 -3 -36 -15 -31 -10 4 -15 -1 -15
-14 0 -11 -4 -20 -10 -20 -6 0 -10 29 -10 66 0 41 4 63 10 59 6 -3 10 -13 10
-20z m-112 -43 c3 -40 2 -43 -20 -40 -17 2 -24 11 -26 31 -5 39 5 59 25 55 13
-2 19 -15 21 -46z"/>
<path d="M3500 3673 l0 -83 120 0 120 0 0 25 c0 22 -3 24 -29 19 -25 -5 -30
-3 -34 17 -3 18 -5 15 -6 -11 -1 -29 -4 -33 -14 -20 -15 19 -67 21 -67 3 0 -7
-4 -13 -10 -13 -6 0 -10 29 -10 66 0 41 4 63 10 59 6 -3 10 -14 10 -23 0 -13
2 -14 9 -4 5 8 17 12 27 10 11 -2 24 3 31 12 11 13 12 12 13 -9 0 -19 3 -21
15 -11 8 6 23 9 34 5 14 -4 21 -1 24 12 3 10 5 -17 6 -59 l1 -78 40 0 40 0 0
83 0 82 -165 0 -165 0 0 -82z m288 -4 c-5 -35 -28 -36 -28 -1 0 16 3 32 7 36
11 11 25 -10 21 -35z m-228 0 c0 -17 -4 -28 -10 -24 -5 3 -10 17 -10 31 0 13
5 24 10 24 6 0 10 -14 10 -31z"/>
<path d="M4160 3673 l0 -83 120 0 120 0 0 25 c0 22 -3 24 -30 19 -21 -5 -30
-3 -31 7 -1 8 -4 3 -9 -11 l-7 -25 -11 25 c-6 14 -11 19 -11 13 -1 -7 -10 -13
-20 -13 -11 0 -22 6 -24 13 -3 7 -6 6 -6 -5 -1 -9 -5 -20 -11 -23 -6 -4 -10
18 -10 60 0 42 4 64 10 60 6 -3 10 -18 11 -33 0 -26 1 -26 9 -4 10 23 40 31
41 10 0 -7 5 -2 12 12 11 24 11 24 15 -15 4 -35 6 -37 12 -15 5 19 12 25 33
23 17 -1 27 4 30 15 3 9 5 -18 6 -60 l1 -78 40 0 40 0 0 83 0 82 -165 0 -165
0 0 -82z m281 25 c0 -7 2 -21 4 -30 2 -9 -3 -22 -11 -29 -12 -9 -14 -4 -14 30
0 22 5 41 10 41 6 0 10 -6 11 -12z m-221 -30 c0 -36 -10 -32 -14 6 -2 14 1 26
5 26 5 0 9 -14 9 -32z"/>
<path d="M40 3490 l0 -80 165 0 165 0 0 80 0 80 -165 0 -165 0 0 -80z m77 -37
c-2 -21 -4 -4 -4 37 0 41 2 58 4 38 2 -21 2 -55 0 -75z m119 75 c22 4 24 1 24
-38 0 -39 -2 -42 -24 -38 -18 4 -27 -1 -34 -16 -8 -16 -11 -4 -11 54 0 58 3
70 11 54 7 -15 16 -20 34 -16z m54 -38 c0 -33 -4 -60 -10 -60 -6 0 -10 27 -10
60 0 33 4 60 10 60 6 0 10 -27 10 -60z m-110 -1 c0 -36 -2 -40 -22 -37 -19 2
-24 10 -26 41 -3 34 -1 37 22 37 24 0 26 -4 26 -41z m140 0 c0 -16 -4 -29 -10
-29 -5 0 -10 16 -10 36 0 21 4 33 10 29 6 -3 10 -19 10 -36z m-220 -4 c0 -14
-4 -25 -10 -25 -5 0 -10 11 -10 25 0 14 5 25 10 25 6 0 10 -11 10 -25z"/>
<path d="M700 3490 l0 -80 163 0 163 0 0 80 0 80 -163 0 -163 0 0 -80z m77
-37 c-2 -21 -4 -4 -4 37 0 41 2 58 4 38 2 -21 2 -55 0 -75z m117 75 c10 2 22
-2 27 -10 6 -9 9 -7 9 10 0 12 5 22 10 22 6 0 10 -10 11 -22 0 -13 3 -17 6
-10 10 26 23 10 23 -28 0 -40 -15 -55 -23 -22 -3 10 -5 6 -6 -10 -1 -27 -21
-41 -21 -15 0 21 -53 15 -67 -8 -10 -17 -12 -8 -12 55 0 63 2 72 12 55 7 -13
19 -19 31 -17z m-54 -38 c0 -36 -2 -40 -25 -40 -22 0 -25 4 -25 40 0 36 3 40
25 40 23 0 25 -4 25 -40z m-80 1 c0 -11 -4 -23 -10 -26 -6 -4 -10 5 -10 19 0
14 5 26 10 26 6 0 10 -9 10 -19z"/>
<path d="M3500 3490 l0 -80 165 0 165 0 0 80 0 80 -165 0 -165 0 0 -80z m90
44 c0 -11 4 -12 19 -5 10 6 21 7 25 4 3 -4 13 2 21 13 13 18 14 17 16 -16 1
-19 3 -27 6 -17 4 14 12 18 33 15 23 -4 30 0 33 16 2 12 4 -13 4 -54 1 -41 -1
-67 -4 -57 -3 11 -14 17 -34 17 -16 0 -30 6 -30 13 -1 6 -5 -1 -9 -18 -6 -27
-8 -28 -16 -10 -10 23 -64 29 -64 8 0 -7 -4 -13 -10 -13 -6 0 -10 29 -10 66 0
41 4 63 10 59 6 -3 10 -13 10 -21z m-30 -46 c-1 -28 -2 -30 -11 -15 -6 10 -8
25 -5 33 9 24 16 16 16 -18z m223 4 c-2 -40 -3 -43 -13 -37 -15 9 -13 68 2 63
7 -3 12 -14 11 -26z"/>
<path d="M4160 3490 l0 -80 165 0 165 0 0 80 0 80 -165 0 -165 0 0 -80z m90
47 c0 -21 54 -14 64 8 8 18 10 17 16 -10 4 -16 8 -24 9 -16 1 9 10 12 31 9 23
-4 30 0 33 16 2 12 4 -13 4 -54 0 -41 -2 -66 -4 -54 -3 16 -10 20 -33 16 -23
-3 -29 0 -33 19 -3 16 -5 11 -6 -14 -1 -40 -20 -43 -22 -4 0 12 -3 16 -6 10
-2 -7 -13 -13 -23 -13 -10 0 -21 6 -23 13 -3 6 -6 2 -6 -10 -2 -39 -21 -36
-22 4 0 30 -2 34 -9 18 -7 -18 -8 -19 -15 -2 -4 9 -4 25 -1 34 6 15 8 15 16 3
7 -11 10 -6 10 18 0 20 4 31 10 27 6 -3 10 -12 10 -18z m195 -46 c2 -22 -1
-31 -11 -31 -14 0 -20 50 -7 63 9 10 13 3 18 -32z"/>
<path d="M40 3307 l0 -83 35 4 34 4 4 77 3 76 2 -77 2 -78 115 0 c63 0 118 0
123 0 4 0 8 36 9 80 l3 80 -165 0 -165 0 0 -83z m194 40 c22 5 25 1 29 -28 3
-31 4 -30 5 9 2 41 22 62 22 22 0 -13 5 -18 15 -14 12 5 15 -2 15 -30 0 -35
-13 -49 -23 -23 -3 6 -6 2 -6 -10 -1 -28 -21 -41 -21 -13 0 17 -3 19 -19 11
-10 -6 -22 -7 -26 -3 -3 4 -13 -2 -21 -12 -13 -18 -14 -12 -13 55 0 51 3 68 9
53 6 -16 15 -20 34 -17z m-56 -39 c-2 -35 -7 -43 -23 -43 -16 0 -21 8 -23 43
-3 39 -2 42 23 42 25 0 26 -3 23 -42z m-78 -3 c0 -14 -4 -25 -10 -25 -5 0 -10
11 -10 25 0 14 5 25 10 25 6 0 10 -11 10 -25z"/>
<path d="M700 3307 l0 -83 35 4 34 4 4 77 3 76 2 -77 2 -78 115 0 c63 0 118 0
122 0 4 0 8 36 9 80 l1 80 -164 0 -163 0 0 -83z m195 41 c16 3 25 -1 28 -15 3
-12 5 -9 6 10 1 32 21 37 21 5 0 -18 2 -20 10 -8 8 12 10 12 15 -2 9 -22 2
-60 -9 -56 -5 2 -13 -8 -19 -22 l-10 -25 -5 23 c-3 19 -6 21 -18 11 -7 -6 -20
-9 -29 -6 -8 4 -19 -1 -24 -11 -8 -12 -10 4 -10 58 0 58 3 70 11 54 7 -15 16
-20 33 -16z m-57 -40 c-2 -35 -7 -43 -23 -43 -16 0 -21 8 -23 43 -3 39 -2 42
23 42 25 0 26 -3 23 -42z m-78 2 c0 -16 -4 -30 -10 -30 -5 0 -10 14 -10 30 0
17 5 30 10 30 6 0 10 -13 10 -30z"/>
<path d="M3500 3308 l0 -83 165 0 165 0 0 83 0 82 -165 0 -165 0 0 -82z m259
25 c1 21 19 23 27 2 8 -19 -3 -65 -15 -65 -6 0 -12 10 -14 23 -3 14 -5 7 -7
-18 -1 -22 -4 -32 -7 -22 -3 12 -13 17 -31 15 -20 -2 -27 2 -32 22 -6 22 -8
20 -12 -15 -4 -39 -4 -39 -15 -15 -7 14 -12 20 -12 13 -1 -15 -30 -10 -42 8
-7 11 -9 9 -9 -8 0 -12 -4 -25 -10 -28 -6 -4 -10 18 -10 59 0 37 4 66 10 66 6
0 10 -10 11 -22 0 -13 3 -17 6 -10 2 6 13 12 24 12 10 0 19 -6 20 -12 0 -7 5
-2 11 12 l11 25 7 -30 c4 -16 8 -22 9 -12 1 15 6 17 31 12 26 -6 30 -4 31 17
1 16 4 13 9 -12 4 -19 8 -27 9 -17z m-200 -25 c-1 -31 -1 -31 -8 -8 -5 14 -6
28 -4 33 9 15 13 6 12 -25z"/>
<path d="M4160 3308 l0 -83 165 0 165 0 0 83 0 82 -165 0 -165 0 0 -82z m249
0 c-1 -40 -3 -65 -6 -55 -3 12 -13 17 -31 15 -24 -3 -28 1 -31 32 -5 33 -5 32
-11 -15 -6 -45 -7 -48 -16 -26 -7 16 -13 20 -18 13 -11 -18 -34 -14 -39 6 -4
13 -5 12 -6 -5 0 -12 -5 -25 -11 -28 -6 -4 -10 18 -10 59 0 37 4 66 10 66 6 0
10 -6 10 -14 0 -9 7 -12 21 -9 12 4 25 0 30 -8 6 -11 9 -8 9 9 0 12 5 22 10
22 6 0 10 -6 10 -12 0 -20 64 -15 68 5 7 37 12 13 11 -55z m41 12 c0 -25 -10
-50 -21 -50 -10 0 -12 63 -3 73 11 10 24 -3 24 -23z m-231 -12 c-1 -31 -1 -31
-8 -8 -5 14 -6 28 -4 33 9 15 13 6 12 -25z"/>
<path d="M40 3126 l0 -86 35 0 35 0 0 80 c0 72 -2 80 -19 80 -11 0 -26 3 -35
6 -14 5 -16 -6 -16 -80z m60 -1 c0 -14 -4 -25 -10 -25 -5 0 -10 11 -10 25 0
14 5 25 10 25 6 0 10 -11 10 -25z"/>
<path d="M233 3202 l-113 -3 0 -79 0 -80 35 0 35 0 0 78 c1 58 3 73 11 59 7
-12 17 -16 30 -12 14 5 22 0 28 -17 9 -21 10 -20 10 10 2 60 21 23 21 -39 0
-33 -4 -59 -10 -59 -5 0 -10 12 -10 27 0 24 -1 25 -13 9 -7 -10 -22 -16 -33
-14 -13 2 -20 -3 -22 -20 -3 -22 -2 -23 80 -20 l83 3 0 79 c0 46 -4 80 -10 80
-5 1 -61 0 -122 -2z m-58 -78 c0 -32 -3 -39 -20 -39 -15 0 -21 8 -23 34 -2 20
2 37 10 42 23 15 33 4 33 -37z m145 1 c0 -19 -4 -35 -10 -35 -5 0 -10 16 -10
35 0 19 5 35 10 35 6 0 10 -16 10 -35z"/>
<path d="M700 3126 l0 -86 35 0 35 0 0 80 c0 72 -2 80 -19 80 -11 0 -26 3 -35
6 -14 5 -16 -6 -16 -80z m51 -29 c-8 -8 -11 -2 -11 19 0 40 14 54 18 19 2 -15
-1 -32 -7 -38z"/>
<path d="M893 3202 l-113 -3 0 -79 0 -80 35 0 35 0 0 78 c1 56 3 72 11 60 5
-10 16 -15 24 -11 9 3 22 0 29 -6 12 -10 15 -8 19 11 l4 23 8 -22 c4 -13 13
-19 21 -16 10 4 14 -4 14 -32 0 -29 -3 -36 -15 -31 -10 4 -15 -1 -15 -14 0
-34 -20 -22 -21 13 -1 24 -3 26 -6 9 -4 -18 -10 -23 -31 -20 -22 2 -28 -2 -30
-19 -3 -22 -1 -23 81 -23 l84 0 -1 82 c-1 45 -6 82 -11 83 -6 0 -61 -1 -122
-3z m-58 -78 c0 -32 -3 -39 -20 -39 -15 0 -21 8 -23 34 -2 20 2 37 10 42 23
15 33 4 33 -37z"/>
<path d="M3500 3126 l0 -86 120 0 120 0 0 25 c0 22 -3 24 -30 19 -21 -5 -30
-3 -31 7 -1 8 -4 3 -9 -11 l-7 -25 -11 25 c-6 14 -11 19 -11 13 -1 -7 -10 -13
-20 -13 -11 0 -22 6 -24 13 -3 6 -6 2 -6 -10 -1 -13 -5 -23 -11 -23 -6 0 -10
29 -10 68 1 61 2 65 15 48 8 -11 18 -17 21 -13 4 3 15 2 24 -3 14 -8 19 -5 25
13 7 22 7 22 14 -3 5 -18 9 -21 15 -12 5 9 17 11 32 8 19 -5 24 -2 24 14 0 19
-6 20 -97 20 -54 0 -108 3 -120 6 -23 6 -23 5 -23 -80z m60 -3 c0 -20 -3 -33
-7 -29 -9 9 -14 38 -8 54 8 23 15 12 15 -25z"/>
<path d="M3778 3203 c-28 -4 -28 -5 -28 -84 l0 -79 40 0 40 0 0 85 c0 62 -3
85 -12 84 -7 -1 -25 -4 -40 -6z m8 -84 c-1 -11 -5 -19 -11 -20 -13 0 -19 27
-10 49 5 13 8 14 14 3 5 -7 8 -21 7 -32z"/>
<path d="M4160 3123 l0 -83 120 0 120 0 0 25 c0 22 -3 25 -25 19 -20 -5 -27
-1 -34 17 -9 22 -10 21 -11 -11 0 -29 -3 -32 -13 -20 -7 8 -22 14 -34 12 -14
-2 -23 2 -24 10 0 7 -5 2 -12 -12 -11 -24 -11 -24 -15 13 -2 20 -1 52 1 70 4
29 5 30 12 9 6 -18 10 -20 21 -11 11 9 17 9 28 0 11 -9 15 -7 21 11 7 21 8 20
14 -12 6 -31 7 -32 13 -12 5 18 11 22 31 17 19 -5 26 -2 30 12 3 10 6 -2 7
-27 1 -33 4 -39 8 -22 9 30 27 24 26 -8 0 -17 -6 -25 -17 -24 -12 1 -17 -6
-17 -27 0 -27 3 -29 40 -29 l40 0 0 83 0 82 -165 0 -165 0 0 -82z m60 -5 c0
-36 -12 -31 -16 7 -1 14 2 25 7 25 5 0 9 -14 9 -32z"/>
<path d="M40 2940 l0 -80 493 0 492 0 0 80 0 80 -492 0 -493 0 0 -80z m77 -37
c-2 -21 -4 -4 -4 37 0 41 2 58 4 38 2 -21 2 -55 0 -75z m119 75 c22 4 24 1 24
-38 0 -39 -2 -42 -24 -38 -18 4 -27 -1 -34 -16 -8 -16 -11 -4 -11 54 0 58 3
70 11 54 7 -15 16 -20 34 -16z m134 -40 c-1 -62 -3 -70 -13 -53 -14 23 -67 29
-67 8 0 -7 -4 -13 -10 -13 -6 0 -10 27 -10 60 0 33 4 60 10 60 6 0 10 -10 11
-22 0 -13 3 -17 6 -10 2 6 13 12 24 12 10 0 19 -6 20 -12 0 -7 5 -1 11 15 5
15 12 27 14 27 2 0 4 -33 4 -72z m77 -35 c-2 -21 -4 -4 -4 37 0 41 2 58 4 38
2 -21 2 -55 0 -75z m262 55 c1 17 7 22 27 22 23 0 25 -3 22 -37 -2 -28 -8 -39
-22 -41 -10 -2 -22 2 -27 10 -6 9 -9 4 -9 -17 -1 -28 -2 -29 -13 -10 -14 23
-67 29 -67 8 0 -26 -20 -12 -21 15 -1 18 -3 21 -6 9 -4 -14 -11 -18 -30 -14
-18 3 -27 -1 -33 -17 -6 -15 -9 0 -9 49 0 50 2 65 9 53 6 -10 18 -14 31 -11
12 4 25 0 30 -8 6 -11 9 -8 9 9 0 12 5 22 10 22 6 0 10 -10 10 -22 0 -17 3
-20 9 -9 5 8 18 12 30 8 15 -3 22 1 28 17 6 18 8 15 14 -19 3 -22 7 -30 8 -17z
m68 -55 c-2 -21 -4 -4 -4 37 0 41 2 58 4 38 2 -21 2 -55 0 -75z m118 77 c13 0
26 -6 28 -12 3 -7 6 -3 6 10 1 27 21 30 21 2 0 -13 5 -18 15 -14 11 5 15 -1
15 -24 0 -32 -15 -51 -23 -30 -3 7 -6 3 -6 -9 -1 -13 -5 -23 -11 -23 -5 0 -10
10 -10 23 0 16 -3 19 -9 8 -5 -8 -18 -12 -31 -8 -16 4 -24 0 -30 -16 -6 -16
-9 0 -9 53 0 56 2 70 10 58 5 -10 21 -18 34 -18z m-60 -36 c0 -33 -4 -40 -22
-42 -21 -3 -23 1 -23 36 0 38 12 54 35 48 6 -2 10 -20 10 -42z m-655 -4 c0
-36 -2 -40 -25 -40 -22 0 -25 4 -25 40 0 36 3 40 25 40 23 0 25 -4 25 -40z
m245 0 c0 -28 -4 -35 -20 -35 -13 0 -21 8 -23 23 -5 34 5 54 25 50 13 -2 18
-13 18 -38z m83 -3 c3 -34 1 -37 -22 -37 -23 0 -26 4 -26 33 0 38 7 49 30 45
9 -2 16 -16 18 -41z m-408 -3 c0 -13 -4 -24 -10 -24 -5 0 -10 14 -10 31 0 17
4 28 10 24 6 -3 10 -17 10 -31z"/>
<path d="M3500 2940 l0 -80 165 0 165 0 0 80 0 80 -165 0 -165 0 0 -80z m90
39 c0 -19 1 -19 16 -4 12 11 20 13 29 5 9 -8 14 -5 20 12 7 19 9 16 15 -22 4
-28 8 -35 8 -19 2 32 26 44 46 24 13 -13 15 -12 19 12 2 16 4 -6 4 -47 0 -41
-2 -66 -4 -54 -3 16 -10 20 -33 16 -21 -3 -30 0 -31 9 -1 8 -5 1 -9 -16 -6
-27 -8 -28 -16 -10 -10 23 -64 29 -64 8 0 -7 -4 -13 -10 -13 -6 0 -10 29 -10
66 0 41 4 63 10 59 6 -3 10 -15 10 -26z m195 -37 c0 -46 -19 -44 -23 2 -3 28
0 37 10 34 7 -3 13 -19 13 -36z m-225 -8 c0 -14 -4 -23 -9 -19 -11 6 -10 45 1
45 4 0 8 -12 8 -26z"/>
<path d="M4160 2940 l0 -80 165 0 165 0 0 80 0 80 -165 0 -165 0 0 -80z m90
43 c0 -13 3 -13 15 -3 11 9 18 10 29 1 11 -9 15 -7 21 11 8 22 8 22 12 -5 4
-24 6 -26 20 -12 12 12 18 13 29 4 11 -9 16 -6 23 12 7 18 10 6 10 -51 0 -45
-3 -67 -8 -55 -11 27 -64 27 -72 0 -6 -20 -6 -20 -15 0 -10 23 -64 29 -64 8 0
-7 -4 -13 -10 -13 -6 0 -10 29 -10 66 0 41 4 63 10 59 6 -3 10 -13 10 -22z
m196 -51 c0 -12 -5 -23 -11 -25 -12 -3 -19 38 -10 61 5 15 7 15 15 2 4 -8 7
-25 6 -38z m-226 6 c0 -17 -3 -28 -7 -24 -9 9 -13 38 -7 48 10 15 14 8 14 -24z"/>
<path d="M40 2757 l0 -83 35 4 34 4 4 77 3 76 2 -77 2 -78 148 -2 c167 -2 348
-2 440 0 l62 2 1 78 c2 64 3 70 9 37 4 -23 8 -30 9 -17 1 18 6 23 24 20 17 -2
23 -11 25 -37 2 -18 -1 -38 -6 -43 -12 -12 -40 0 -45 20 -3 10 -5 0 -6 -20
l-1 -38 115 0 c63 0 118 -1 122 -2 4 -2 8 34 9 80 l1 82 -494 0 -493 0 0 -83z
m195 41 c26 4 26 3 23 -39 -3 -38 -6 -44 -26 -44 -12 0 -27 -7 -32 -15 -7 -11
-10 -3 -11 30 -1 39 -2 41 -8 15 -4 -21 -12 -30 -26 -30 -17 0 -20 7 -20 40 0
31 4 41 19 43 10 2 22 -2 27 -10 6 -9 9 -4 9 17 1 27 2 28 10 9 6 -17 15 -20
35 -16z m144 -15 c1 11 9 17 26 17 22 0 25 -4 25 -33 0 -18 -5 -38 -11 -44
-15 -15 -39 -5 -40 16 -1 9 -5 0 -9 -19 -6 -34 -7 -34 -17 -11 -6 16 -12 20
-17 13 -5 -9 -13 -9 -27 -2 -15 8 -19 7 -19 -4 0 -8 -4 -18 -10 -21 -6 -4 -10
18 -10 59 0 37 4 66 10 66 6 0 10 -6 10 -12 0 -22 59 -16 67 7 6 17 8 14 14
-15 3 -19 7 -27 8 -17z m68 -60 c-2 -21 -4 -4 -4 37 0 41 2 58 4 38 2 -21 2
-55 0 -75z m116 74 c19 4 26 0 30 -14 3 -12 5 -9 6 10 1 32 21 37 21 5 0 -17
3 -19 9 -10 5 8 17 12 27 10 12 -2 24 4 31 17 12 19 12 18 13 -10 1 -16 4 -24
7 -17 2 6 16 12 29 12 21 0 24 -4 24 -40 0 -47 -24 -65 -46 -35 -13 17 -14 17
-15 -11 0 -27 -1 -27 -11 -8 -7 15 -16 20 -33 16 -16 -3 -25 1 -28 15 -3 12
-5 9 -6 -9 -1 -27 -21 -41 -21 -15 0 21 -62 13 -71 -9 -4 -11 -8 12 -8 56 0
52 3 68 9 54 6 -16 15 -20 33 -17z m327 3 c16 0 31 -6 33 -12 3 -7 6 -3 6 10
1 12 6 22 11 22 6 0 10 -10 11 -22 0 -13 3 -17 6 -10 9 22 23 2 23 -35 0 -26
-4 -34 -14 -30 -9 3 -17 -3 -21 -16 -7 -20 -8 -20 -14 8 -5 25 -8 27 -14 12
-5 -13 -13 -16 -26 -12 -13 4 -23 0 -30 -12 -8 -14 -10 0 -10 57 1 41 3 67 6
58 3 -12 14 -18 33 -18z m-380 -41 c0 -36 -2 -40 -22 -37 -19 2 -24 10 -26 41
-3 34 -1 37 22 37 24 0 26 -4 26 -41z m-410 -4 c0 -14 -4 -25 -10 -25 -5 0
-10 11 -10 25 0 14 5 25 10 25 6 0 10 -11 10 -25z"/>
<path d="M3500 2758 l0 -83 165 0 165 0 0 83 0 82 -165 0 -165 0 0 -82z m249
0 c-1 -40 -3 -65 -6 -55 -4 14 -11 17 -28 13 -17 -4 -27 -1 -34 11 -9 15 -10
13 -11 -12 -1 -28 -2 -29 -15 -11 -7 10 -19 15 -25 11 -6 -4 -17 -1 -25 5 -12
10 -15 9 -15 -3 0 -9 -4 -19 -10 -22 -6 -4 -10 18 -10 59 0 37 4 66 10 66 6 0
10 -10 10 -22 0 -17 3 -19 9 -10 5 8 17 12 27 10 11 -2 24 3 31 12 11 13 12
11 13 -10 0 -18 3 -21 9 -11 5 8 19 12 35 9 20 -4 26 -1 26 13 0 11 2 19 5 19
3 0 4 -33 4 -72z m39 -11 c-2 -12 -7 -22 -13 -22 -12 0 -19 41 -10 63 6 16 7
16 16 -1 6 -10 9 -28 7 -40z m-231 -4 c-4 -17 -4 -17 -12 0 -4 9 -4 25 0 35 8
16 8 16 12 0 3 -10 3 -26 0 -35z"/>
<path d="M4160 2758 l0 -83 165 3 165 3 0 79 0 80 -165 0 -165 0 0 -82z m249
0 c0 -57 -2 -68 -10 -49 -8 20 -11 21 -25 10 -14 -11 -18 -10 -29 5 -12 16
-14 16 -18 -11 -4 -27 -4 -27 -12 -5 -6 18 -10 20 -21 11 -11 -9 -18 -8 -29 1
-12 10 -15 10 -15 -3 0 -9 -4 -19 -10 -22 -6 -4 -10 18 -10 59 0 37 4 66 10
66 6 0 10 -10 11 -22 0 -13 3 -17 6 -10 2 6 13 12 23 12 10 0 21 -6 23 -12 3
-7 6 -3 6 10 1 32 21 27 22 -5 1 -17 3 -21 6 -10 3 11 14 17 34 17 19 0 29 5
29 15 0 8 2 15 5 15 3 0 5 -33 4 -72z m38 -9 c-6 -38 -27 -35 -27 4 0 18 3 37
7 41 11 10 24 -19 20 -45z m-228 4 c0 -34 -1 -36 -11 -16 -6 12 -8 29 -5 37
11 27 17 18 16 -21z"/>
<path d="M4453 2657 l-43 -11 0 -77 0 -77 45 -4 45 -3 0 92 c0 51 -1 92 -2 92
-2 -1 -22 -7 -45 -12z m-5 -84 c-2 -21 -7 -38 -13 -38 -5 0 -11 17 -13 38 -3
29 0 37 13 37 13 0 16 -8 13 -37z"/>
<path d="M40 2576 l0 -86 35 0 35 0 0 80 c0 57 -4 80 -12 80 -7 0 -23 3 -35 6
-23 6 -23 5 -23 -80z m51 -29 c-8 -8 -11 -2 -11 19 0 40 14 54 18 19 2 -15 -1
-32 -7 -38z"/>
<path d="M228 2653 l-108 -4 0 -79 0 -80 35 0 c33 0 35 2 35 33 0 21 -3 28 -9
19 -5 -8 -17 -12 -27 -10 -27 5 -27 81 0 86 10 2 22 -2 27 -10 6 -9 9 -6 9 12
1 21 2 22 10 9 6 -11 18 -15 35 -11 17 3 25 0 26 -9 1 -8 4 -3 9 11 7 25 7 25
16 3 5 -12 14 -21 19 -20 6 1 11 -13 13 -32 3 -27 0 -33 -12 -28 -11 5 -16 0
-16 -13 0 -11 -4 -20 -10 -20 -5 0 -10 10 -10 23 0 16 -3 18 -9 9 -4 -8 -19
-12 -32 -10 -19 2 -25 -2 -27 -19 -3 -22 -1 -23 81 -23 l85 0 -2 82 c-1 66 -4
83 -16 83 -8 1 -63 -1 -122 -2z"/>
<path d="M700 2576 l0 -86 35 0 35 0 0 80 c0 57 -4 80 -12 80 -7 0 -23 3 -35
6 -23 6 -23 5 -23 -80z m60 -1 c0 -13 -4 -27 -10 -30 -6 -4 -10 8 -10 30 0 22
4 34 10 30 6 -3 10 -17 10 -30z"/>
<path d="M888 2653 l-108 -4 0 -79 0 -80 35 0 35 0 -1 48 c-1 36 -3 41 -8 22
-4 -15 -15 -26 -29 -28 -20 -3 -22 1 -22 38 0 47 24 65 46 35 13 -17 14 -17
14 11 1 23 3 26 10 13 6 -11 18 -15 35 -11 19 3 25 0 26 -14 1 -11 5 -6 9 11
7 28 8 28 15 8 4 -13 12 -19 21 -16 10 4 14 -4 14 -32 0 -29 -3 -36 -15 -31
-10 4 -15 -1 -15 -14 0 -11 -4 -20 -10 -20 -5 0 -10 12 -10 27 0 24 -1 25 -13
9 -7 -10 -22 -16 -33 -14 -13 2 -20 -3 -22 -19 -3 -22 -1 -23 80 -23 l84 0 -1
82 c-1 66 -4 83 -15 83 -8 1 -63 -1 -122 -2z"/>
<path d="M3500 2577 l0 -86 120 0 120 0 0 25 c0 21 -3 24 -26 18 -17 -4 -29
-2 -35 7 -6 10 -9 7 -9 -11 -1 -21 -2 -23 -13 -10 -7 8 -23 15 -37 15 -14 0
-30 -7 -37 -15 -10 -12 -12 -2 -12 55 0 57 2 67 12 55 7 -8 23 -15 37 -15 14
0 30 7 37 15 11 13 12 11 13 -9 0 -20 2 -21 15 -11 8 7 24 10 35 7 15 -4 20 0
20 14 0 17 -8 19 -89 19 -49 0 -103 3 -120 6 l-31 7 0 -86z m60 -3 c0 -19 -4
-33 -9 -29 -8 4 -9 48 -2 63 5 12 11 -5 11 -34z"/>
<path d="M3773 2653 c-22 -4 -23 -9 -23 -84 l0 -79 40 0 40 0 0 85 c0 92 2 89
-57 78z m17 -78 c0 -24 -5 -35 -15 -35 -10 0 -15 11 -15 35 0 24 5 35 15 35
10 0 15 -11 15 -35z"/>
<path d="M4160 2577 l0 -86 120 0 120 0 0 25 c0 21 -4 23 -24 18 -17 -4 -27 0
-35 13 -9 16 -10 14 -11 -12 -1 -25 -3 -28 -13 -15 -7 8 -23 15 -37 15 -14 0
-30 -7 -37 -15 -10 -12 -12 -2 -13 53 0 43 4 66 10 62 6 -3 10 -14 10 -23 0
-13 2 -14 9 -4 5 8 17 12 27 10 11 -2 24 3 31 12 10 13 13 10 13 -15 1 -20 4
-25 8 -14 5 11 16 15 35 13 21 -2 27 2 27 17 0 17 -8 19 -89 19 -49 0 -103 3
-120 6 l-31 7 0 -86z m59 -4 c0 -34 -1 -36 -11 -16 -6 12 -8 29 -5 37 11 27
17 18 16 -21z"/>
<path d="M40 2390 l0 -80 165 0 165 0 0 80 0 80 -165 0 -165 0 0 -80z m77 -37
c-2 -21 -4 -4 -4 37 0 41 2 58 4 38 2 -21 2 -55 0 -75z m108 79 c4 4 16 3 26
-3 15 -7 19 -6 19 6 0 8 5 15 10 15 6 0 10 -7 10 -15 0 -9 6 -12 15 -9 12 5
15 -2 15 -30 0 -25 -4 -36 -15 -36 -8 0 -15 -7 -15 -15 0 -24 -20 -17 -21 8 0
12 -3 16 -6 10 -2 -7 -15 -13 -28 -13 -13 0 -29 -8 -34 -17 -8 -14 -10 1 -11
56 0 67 1 73 14 55 8 -10 18 -16 21 -12z m-47 -40 c3 -39 1 -42 -22 -42 -23 0
-26 4 -26 38 0 43 7 54 30 50 10 -2 16 -17 18 -46z m-78 -2 c0 -16 -4 -30 -10
-30 -5 0 -10 14 -10 30 0 17 5 30 10 30 6 0 10 -13 10 -30z"/>
<path d="M700 2390 l0 -80 164 0 163 0 0 80 -1 80 -163 0 -163 0 0 -80z m77
-37 c-2 -21 -4 -4 -4 37 0 41 2 58 4 38 2 -21 2 -55 0 -75z m126 75 c22 -4 27
-1 27 14 0 26 20 12 21 -15 0 -12 3 -16 6 -9 9 22 23 1 23 -35 0 -30 -2 -34
-15 -23 -13 10 -15 9 -15 -9 0 -11 -4 -21 -10 -21 -5 0 -10 10 -10 23 0 16 -3
19 -9 8 -5 -8 -18 -12 -31 -8 -16 4 -24 0 -30 -16 -6 -16 -9 -1 -9 52 -1 62 1
72 12 59 6 -9 24 -18 40 -20z m-63 -39 c0 -35 -3 -39 -25 -39 -22 0 -25 4 -25
39 0 29 4 41 18 44 27 6 32 -1 32 -44z m-80 1 c0 -16 -4 -30 -10 -30 -5 0 -10
14 -10 30 0 17 5 30 10 30 6 0 10 -13 10 -30z"/>
<path d="M3500 2390 l0 -80 165 0 165 0 0 80 0 80 -165 0 -165 0 0 -80z m90
47 c0 -21 54 -14 65 8 8 17 10 15 13 -17 2 -21 2 -55 0 -75 -3 -33 -5 -35 -13
-18 -11 23 -65 29 -65 8 0 -7 -4 -13 -10 -13 -6 0 -10 29 -10 66 0 41 4 63 10
59 6 -3 10 -12 10 -18z m159 -49 c-1 -40 -4 -63 -6 -51 -4 19 -9 21 -34 16
-28 -5 -29 -5 -29 37 0 42 0 42 30 37 25 -6 30 -3 30 13 0 11 2 20 5 20 3 0 4
-33 4 -72z m38 14 c4 -25 -7 -53 -18 -47 -5 4 -9 19 -9 34 0 43 20 53 27 13z
m-230 -29 c-3 -10 -5 -2 -5 17 0 19 2 27 5 18 2 -10 2 -26 0 -35z"/>
<path d="M4160 2390 l0 -80 165 0 165 0 0 80 0 80 -165 0 -165 0 0 -80z m90
37 c0 -17 2 -19 9 -8 5 8 18 12 29 9 15 -4 22 0 27 16 7 21 7 21 13 1 9 -27
62 -27 73 0 5 12 8 -10 8 -55 0 -43 -4 -67 -8 -56 -9 22 -71 30 -71 9 0 -7 -4
-13 -10 -13 -5 0 -10 6 -10 13 0 7 -13 12 -30 12 -17 0 -30 -5 -30 -12 0 -7
-4 -13 -10 -13 -6 0 -10 29 -10 66 0 41 4 63 10 59 6 -3 10 -16 10 -28z m198
-41 c-2 -15 -7 -28 -13 -29 -12 -2 -19 38 -10 60 9 25 27 1 23 -31z m-228 3
c0 -17 -4 -28 -10 -24 -5 3 -10 17 -10 31 0 13 5 24 10 24 6 0 10 -14 10 -31z"/>
<path d="M40 2208 l0 -83 165 3 165 3 0 79 0 80 -165 0 -165 0 0 -82z m77 -35
c-2 -21 -4 -4 -4 37 0 41 2 58 4 38 2 -21 2 -55 0 -75z m113 77 c19 0 30 -6
33 -17 3 -11 5 -7 6 10 1 32 21 37 22 5 0 -13 3 -17 6 -10 10 26 24 10 21 -25
-2 -21 -7 -36 -12 -33 -5 3 -13 -6 -19 -20 l-11 -25 -4 28 c-3 25 -5 26 -19
11 -11 -11 -19 -12 -26 -5 -8 8 -15 5 -24 -11 -12 -23 -12 -23 -13 5 0 26 -2
27 -15 13 -25 -24 -45 -9 -45 35 0 35 3 39 24 39 18 0 26 -7 29 -22 3 -15 5
-8 7 17 1 22 4 32 7 23 3 -12 14 -18 33 -18z m-135 -38 c2 -12 0 -24 -6 -27
-5 -4 -9 8 -9 26 0 35 8 35 15 1z"/>
<path d="M700 2208 l0 -83 163 3 162 3 1 79 0 80 -163 0 -163 0 0 -82z m77
-35 c-2 -21 -4 -4 -4 37 0 41 2 58 4 38 2 -21 2 -55 0 -75z m113 74 c13 4 26
0 31 -8 6 -11 9 -8 9 9 0 12 5 22 10 22 6 0 10 -9 10 -20 0 -13 5 -18 15 -14
12 5 15 -2 15 -31 0 -28 -4 -36 -14 -32 -9 3 -17 -3 -21 -16 -7 -20 -8 -20
-14 8 -5 25 -8 27 -14 12 -5 -13 -13 -16 -26 -12 -13 4 -23 0 -30 -12 -8 -14
-10 0 -10 57 0 53 3 69 9 53 6 -16 14 -20 30 -16z m-54 -21 c9 -37 1 -61 -21
-61 -16 0 -21 8 -23 43 -3 37 -1 42 17 42 13 0 23 -9 27 -24z m-76 -16 c0 -16
-4 -30 -10 -30 -5 0 -10 14 -10 30 0 17 5 30 10 30 6 0 10 -13 10 -30z"/>
<path d="M3500 2208 l0 -83 165 0 165 0 0 83 0 82 -165 0 -165 0 0 -82z m249
0 c-1 -40 -3 -65 -6 -55 -3 12 -13 17 -31 15 -25 -3 -27 0 -30 41 l-3 44 30
-6 c26 -6 31 -3 31 13 0 11 2 20 5 20 3 0 4 -33 4 -72z m-158 35 c1 -18 3 -22
6 -10 3 12 12 17 26 15 12 -2 27 4 34 12 10 12 12 2 13 -53 0 -43 -4 -66 -10
-62 -5 3 -10 13 -10 22 0 12 -3 13 -15 3 -8 -6 -19 -9 -25 -5 -6 4 -18 -1 -25
-11 -13 -17 -14 -12 -15 49 0 38 4 67 10 67 6 0 11 -12 11 -27z m196 -44 c-6
-38 -27 -35 -27 4 0 18 3 37 7 41 11 10 24 -19 20 -45z m-230 -6 c-4 -17 -4
-17 -12 0 -4 9 -4 25 0 35 8 16 8 16 12 0 3 -10 3 -26 0 -35z"/>
<path d="M4160 2208 l0 -83 165 0 165 0 0 83 0 82 -165 0 -165 0 0 -82z m249
0 c-1 -41 -4 -63 -7 -51 -5 16 -11 20 -21 14 -26 -16 -41 -1 -41 41 0 38 1 40
26 35 20 -3 28 0 31 14 10 35 13 19 12 -53z m-158 40 c0 -13 3 -17 6 -10 2 6
13 12 23 12 10 0 21 -6 23 -12 3 -7 6 -3 6 10 1 12 6 22 11 22 6 0 10 -29 10
-66 0 -41 -4 -63 -10 -59 -5 3 -10 13 -10 22 0 13 -3 13 -15 3 -12 -10 -18
-10 -30 0 -12 10 -15 10 -15 -3 0 -9 -4 -19 -10 -22 -6 -4 -10 18 -10 59 0 37
4 66 10 66 6 0 10 -10 11 -22z m197 -51 c-2 -12 -7 -22 -13 -22 -12 0 -19 41
-10 63 6 16 7 16 16 -1 6 -10 9 -28 7 -40z m-228 11 c0 -23 -3 -29 -11 -21 -6
6 -8 20 -4 32 9 30 15 26 15 -11z"/>
<path d="M40 2025 l0 -85 35 0 35 0 0 85 0 85 -35 0 -35 0 0 -85z m60 -1 c0
-13 -4 -24 -10 -24 -5 0 -10 14 -10 31 0 17 4 28 10 24 6 -3 10 -17 10 -31z"/>
<path d="M120 2023 l0 -83 35 0 35 0 0 78 c1 53 4 72 10 61 6 -11 18 -15 35
-11 17 3 25 0 26 -9 1 -8 5 -3 9 11 8 25 8 25 15 3 4 -13 12 -20 21 -16 10 4
14 -4 14 -32 0 -29 -3 -36 -15 -31 -10 4 -15 -1 -15 -14 0 -11 -4 -20 -10 -20
-5 0 -10 10 -10 23 0 16 -3 18 -9 9 -4 -8 -19 -12 -32 -10 -18 2 -25 -2 -27
-19 -3 -20 0 -21 82 -21 l86 -1 0 84 0 84 -125 -2 -125 -2 0 -82z m55 2 c0
-33 -3 -40 -20 -40 -15 0 -21 8 -23 28 -5 39 5 59 25 55 14 -2 18 -13 18 -43z"/>
<path d="M700 2025 l0 -85 35 0 35 0 0 85 0 85 -35 0 -35 0 0 -85z m60 5 c0
-16 -4 -30 -10 -30 -11 0 -14 43 -3 53 11 12 13 8 13 -23z"/>
<path d="M780 2023 l0 -83 35 0 35 0 0 78 c1 53 4 72 10 61 6 -11 18 -15 35
-11 17 3 25 0 26 -9 1 -8 5 -3 9 11 8 25 8 25 15 3 4 -13 12 -20 21 -16 10 4
14 -4 14 -32 0 -29 -3 -36 -15 -31 -10 4 -15 -1 -15 -14 0 -11 -4 -20 -10 -20
-5 0 -10 12 -10 27 0 24 -1 25 -13 9 -7 -10 -22 -16 -33 -14 -13 2 -20 -3 -22
-19 -3 -21 0 -22 81 -22 l84 0 -1 82 -2 82 -122 0 -122 0 0 -82z m55 2 c0 -33
-3 -40 -20 -40 -15 0 -21 8 -23 28 -5 39 5 59 25 55 14 -2 18 -13 18 -43z"/>
<path d="M3500 2025 l0 -84 120 0 120 0 0 24 c0 22 -3 24 -29 19 -23 -5 -30
-2 -34 12 -3 12 -5 8 -6 -11 -1 -25 -4 -28 -14 -15 -7 8 -22 14 -34 12 -14 -2
-23 2 -24 10 0 7 -5 2 -12 -12 l-11 -25 -4 29 c-3 21 -6 26 -12 16 -6 -10 -10
-7 -16 14 -4 16 -2 32 5 39 8 8 11 7 12 -3 1 -8 5 -1 9 15 7 28 8 29 15 8 6
-19 10 -20 26 -10 16 10 21 9 28 -1 6 -10 10 -8 16 10 l7 23 8 -25 c4 -14 8
-19 9 -11 1 10 10 12 31 8 26 -6 30 -4 30 16 0 21 -3 22 -120 24 l-120 1 0
-83z"/>
<path d="M3750 2025 l0 -85 40 0 40 0 0 85 0 85 -40 0 -40 0 0 -85z m36 11 c6
-26 -1 -46 -17 -46 -5 0 -9 16 -9 35 0 40 17 47 26 11z"/>
<path d="M4160 2025 l0 -84 120 0 120 0 0 25 c0 21 -3 24 -26 18 -17 -4 -29
-2 -35 7 -6 10 -9 7 -9 -11 -1 -21 -2 -23 -13 -10 -7 8 -22 14 -34 12 -14 -2
-23 2 -24 10 0 7 -5 2 -12 -12 -11 -24 -11 -24 -15 13 -2 20 -2 52 0 70 l4 32
11 -25 c7 -14 12 -19 12 -12 1 6 10 12 21 12 11 0 20 -6 21 -12 0 -7 5 -2 11
12 l11 25 7 -25 c5 -14 8 -19 9 -11 1 10 10 12 31 8 26 -6 30 -4 30 16 0 21
-3 22 -120 24 l-120 1 0 -83z m60 -7 c0 -23 -3 -29 -11 -21 -6 6 -8 20 -4 32
9 30 15 26 15 -11z"/>
<path d="M4411 2068 c1 -24 3 -35 6 -25 2 9 9 17 14 17 11 0 23 -46 14 -59
-10 -16 -23 -13 -28 7 -3 9 -5 -2 -6 -25 l-1 -43 40 0 40 0 0 85 0 85 -40 0
-40 0 1 -42z"/>
<path d="M40 1840 l0 -80 165 0 165 0 0 80 0 80 -165 0 -165 0 0 -80z m77 -37
c-2 -21 -4 -4 -4 37 0 41 2 58 4 38 2 -21 2 -55 0 -75z m118 77 c23 0 25 -4
25 -41 0 -38 -2 -41 -24 -37 -18 4 -27 -1 -34 -16 -8 -16 -11 -4 -11 54 0 56
2 70 10 58 5 -10 21 -18 34 -18z m55 5 c0 -8 6 -14 13 -12 7 1 13 -11 15 -32
3 -27 0 -33 -12 -28 -11 5 -16 0 -16 -13 0 -11 -4 -20 -10 -20 -6 0 -10 27
-10 60 0 33 4 60 10 60 6 0 10 -7 10 -15z m-110 -45 c0 -36 -2 -40 -25 -40
-22 0 -25 4 -25 40 0 36 3 40 25 40 23 0 25 -4 25 -40z m-80 -1 c0 -17 -4 -28
-10 -24 -5 3 -10 17 -10 31 0 13 5 24 10 24 6 0 10 -14 10 -31z"/>
<path d="M700 1840 l0 -80 163 0 163 0 0 80 0 80 -163 0 -163 0 0 -80z m77
-37 c-2 -21 -4 -4 -4 37 0 41 2 58 4 38 2 -21 2 -55 0 -75z m119 75 c22 4 24
1 24 -36 0 -41 -18 -60 -38 -40 -8 8 -14 5 -21 -13 -8 -19 -10 -7 -10 51 0 58
3 70 11 54 7 -15 16 -20 34 -16z m54 6 c0 -8 6 -13 13 -11 7 1 13 -11 15 -30
2 -25 -1 -33 -12 -33 -9 0 -16 -7 -16 -15 0 -8 -4 -15 -10 -15 -6 0 -10 29
-10 66 0 41 4 63 10 59 6 -3 10 -13 10 -21z m-110 -44 c0 -36 -2 -40 -25 -40
-22 0 -25 4 -25 40 0 36 3 40 25 40 23 0 25 -4 25 -40z m-80 0 c0 -16 -4 -30
-10 -30 -5 0 -10 14 -10 30 0 17 5 30 10 30 6 0 10 -13 10 -30z"/>
<path d="M3500 1840 l0 -80 165 0 165 0 0 80 0 80 -165 0 -165 0 0 -80z m90
42 c0 -12 3 -13 12 -4 7 7 17 8 28 2 14 -7 19 -5 25 13 7 21 7 21 13 2 5 -14
16 -20 37 -20 21 0 32 6 37 20 3 11 6 -14 6 -55 -1 -41 -3 -65 -5 -53 -4 19
-9 21 -34 16 -20 -4 -29 -2 -30 8 -1 8 -5 1 -9 -16 l-7 -30 -10 24 c-6 16 -12
20 -17 13 -5 -9 -13 -9 -27 -2 -15 9 -19 7 -19 -5 0 -8 -4 -15 -10 -15 -6 0
-10 29 -10 66 0 41 4 63 10 59 6 -3 10 -14 10 -23z m196 -17 c8 -21 -4 -67
-16 -60 -13 8 -13 75 0 75 6 0 13 -7 16 -15z m-226 -21 c0 -14 -4 -23 -10 -19
-5 3 -10 15 -10 26 0 10 5 19 10 19 6 0 10 -12 10 -26z"/>
<path d="M4160 1840 l0 -80 165 0 165 0 0 80 0 80 -165 0 -165 0 0 -80z m90
47 c0 -21 54 -14 64 8 8 19 9 19 15 -5 4 -16 10 -21 14 -13 4 6 18 10 31 7 17
-3 26 1 29 13 3 10 5 -16 4 -57 0 -41 -2 -66 -4 -54 -3 16 -10 20 -33 16 -21
-3 -29 1 -33 15 -3 12 -5 9 -6 -9 -1 -27 -21 -41 -21 -15 0 7 -13 12 -30 12
-17 0 -30 -5 -30 -12 0 -7 -4 -13 -10 -13 -6 0 -10 29 -10 66 0 41 4 63 10 59
6 -3 10 -12 10 -18z m195 -45 c0 -46 -19 -44 -23 2 -3 28 0 37 10 34 7 -3 13
-19 13 -36z m-228 -19 c-3 -10 -5 -2 -5 17 0 19 2 27 5 18 2 -10 2 -26 0 -35z"/>
<path d="M40 1658 l0 -83 165 3 165 3 0 79 0 80 -165 0 -165 0 0 -82z m77 -35
c-2 -21 -4 -4 -4 37 0 41 2 58 4 38 2 -21 2 -55 0 -75z m118 75 c26 4 26 3 23
-39 -3 -38 -6 -44 -26 -44 -12 0 -27 -7 -32 -15 -7 -10 -10 9 -9 60 0 52 3 68
9 54 6 -17 15 -20 35 -16z m55 2 c0 -13 5 -18 15 -14 12 5 15 -2 15 -30 0 -35
-13 -49 -23 -23 -3 6 -6 2 -6 -10 -1 -13 -5 -23 -11 -23 -6 0 -10 27 -10 60 0
33 4 60 10 60 6 0 10 -9 10 -20z m-112 -42 c-2 -35 -7 -43 -23 -43 -16 0 -21
8 -23 43 -3 39 -2 42 23 42 25 0 26 -3 23 -42z m-78 -3 c0 -14 -4 -25 -10 -25
-5 0 -10 11 -10 25 0 14 5 25 10 25 6 0 10 -11 10 -25z"/>
<path d="M700 1660 l0 -80 163 0 162 0 1 80 0 80 -163 0 -163 0 0 -80z m77
-37 c-2 -21 -4 -4 -4 37 0 41 2 58 4 38 2 -21 2 -55 0 -75z m118 75 c26 4 26
3 23 -39 -3 -38 -6 -44 -26 -44 -12 0 -27 -7 -32 -15 -7 -10 -10 9 -9 60 0 52
3 68 9 54 6 -17 15 -20 35 -16z m55 2 c0 -13 5 -18 15 -14 12 5 15 -2 15 -31
0 -29 -3 -36 -15 -31 -9 3 -15 0 -15 -9 0 -7 -4 -17 -10 -20 -6 -4 -10 18 -10
59 0 37 4 66 10 66 6 0 10 -9 10 -20z m-110 -39 c0 -43 -9 -55 -34 -45 -11 4
-16 19 -16 45 0 35 3 39 25 39 22 0 25 -4 25 -39z m-80 -6 c0 -14 -4 -25 -10
-25 -5 0 -10 11 -10 25 0 14 5 25 10 25 6 0 10 -11 10 -25z"/>
<path d="M3500 1660 l0 -80 165 0 165 0 0 80 0 80 -165 0 -165 0 0 -80z m249
-2 c-1 -40 -3 -65 -6 -55 -3 12 -13 17 -31 15 -25 -3 -27 0 -30 41 l-3 44 30
-6 c26 -6 31 -3 31 13 0 11 2 20 5 20 3 0 4 -33 4 -72z m-158 40 c0 -13 3 -17
6 -10 2 6 13 12 23 12 10 0 21 -6 23 -12 3 -7 6 -3 6 10 1 12 6 22 11 22 6 0
10 -29 10 -66 0 -41 -4 -63 -10 -59 -5 3 -10 14 -10 23 0 15 -2 15 -10 2 -8
-12 -13 -13 -30 -2 -17 10 -20 10 -20 -2 0 -8 -4 -18 -10 -21 -6 -4 -10 18
-10 59 0 37 4 66 10 66 6 0 10 -10 11 -22z m197 -50 c-5 -37 -28 -33 -28 5 0
18 3 37 7 41 10 10 25 -21 21 -46z"/>
<path d="M4160 1658 l0 -83 165 3 165 3 0 79 0 80 -165 0 -165 0 0 -82z m249
0 c-1 -40 -3 -65 -6 -55 -3 12 -13 17 -31 15 -25 -3 -27 0 -30 41 l-3 44 30
-6 c26 -6 31 -3 31 13 0 11 2 20 5 20 3 0 4 -33 4 -72z m-158 40 c0 -13 3 -17
6 -10 2 6 13 12 23 12 10 0 21 -6 23 -12 3 -7 6 -3 6 10 1 12 6 22 11 22 6 0
10 -29 10 -66 0 -41 -4 -63 -10 -59 -5 3 -10 13 -10 22 0 13 -3 13 -15 3 -12
-10 -18 -10 -30 0 -12 10 -15 10 -15 -3 0 -9 -4 -19 -10 -22 -6 -4 -10 18 -10
59 0 37 4 66 10 66 6 0 10 -10 11 -22z m195 -54 c-4 -13 -11 -24 -16 -24 -11
0 -14 63 -3 74 12 11 25 -24 19 -50z"/>
<path d="M40 1475 l0 -85 35 0 35 0 0 85 0 85 -35 0 -35 0 0 -85z m60 0 c0
-14 -4 -25 -10 -25 -5 0 -10 11 -10 25 0 14 5 25 10 25 6 0 10 -11 10 -25z"/>
<path d="M120 1475 l0 -83 125 0 125 0 0 83 0 83 -125 0 -125 0 0 -83z m111
42 c12 4 25 0 30 -8 6 -11 9 -8 9 9 0 12 5 22 10 22 6 0 10 -9 10 -20 0 -13 5
-18 15 -14 12 5 15 -2 15 -31 0 -29 -3 -36 -15 -31 -10 4 -15 -1 -15 -14 0
-11 -4 -20 -10 -20 -5 0 -10 10 -10 23 0 16 -3 19 -9 8 -5 -8 -18 -12 -30 -8
-13 3 -25 -1 -31 -11 -7 -13 -10 -10 -10 18 -1 32 -2 33 -11 12 -5 -15 -15
-22 -26 -20 -27 5 -26 81 1 86 10 2 22 -2 27 -10 6 -9 9 -6 9 12 1 21 2 22 10
8 6 -10 18 -14 31 -11z"/>
<path d="M700 1475 l0 -85 35 0 35 0 0 85 0 85 -35 0 -35 0 0 -85z m60 0 c0
-14 -4 -25 -10 -25 -5 0 -10 11 -10 25 0 14 5 25 10 25 6 0 10 -11 10 -25z"/>
<path d="M780 1475 l0 -85 35 0 35 0 0 85 0 85 -35 0 -35 0 0 -85z m55 0 c0
-33 -3 -40 -20 -40 -15 0 -21 8 -23 28 -5 39 5 59 25 55 14 -2 18 -13 18 -43z"/>
<path d="M862 1537 c2 -16 9 -21 25 -19 12 2 25 -3 29 -10 6 -9 10 -6 15 12
l6 25 11 -25 c6 -14 11 -19 11 -12 1 8 10 12 24 10 12 -2 27 4 34 12 10 12 12
2 13 -53 0 -43 -4 -66 -10 -62 -5 3 -10 14 -11 23 0 11 -3 12 -6 5 -2 -7 -13
-13 -24 -13 -10 0 -19 6 -20 13 0 6 -5 1 -11 -13 l-11 -25 -6 25 c-5 18 -9 21
-15 12 -4 -7 -17 -12 -29 -10 -16 2 -23 -3 -25 -18 -3 -21 0 -22 117 -22 l120
0 4 77 3 76 2 -77 2 -78 35 0 35 0 1 78 c0 54 3 71 9 55 6 -16 14 -20 30 -16
13 4 26 0 31 -8 6 -11 9 -8 9 9 0 12 5 22 10 22 6 0 10 -6 10 -13 0 -21 53
-15 67 8 10 17 12 10 13 -48 0 -43 -4 -66 -10 -62 -5 3 -10 14 -11 23 0 11 -3
12 -6 5 -2 -7 -13 -13 -24 -13 -10 0 -19 6 -20 13 0 6 -5 1 -11 -13 l-11 -25
-6 25 c-5 18 -9 21 -15 12 -4 -7 -17 -12 -29 -10 -16 2 -23 -3 -25 -18 -3 -21
0 -22 117 -22 l120 0 4 77 3 76 2 -77 2 -78 35 0 35 0 1 78 c0 45 4 69 8 58 9
-22 71 -30 71 -8 0 6 5 12 10 12 6 0 10 -6 10 -13 0 -21 53 -15 67 8 10 17 12
10 13 -48 0 -43 -4 -66 -10 -62 -5 3 -10 14 -11 23 0 11 -3 12 -6 5 -2 -7 -13
-13 -24 -13 -10 0 -19 6 -20 13 0 6 -5 1 -11 -13 l-11 -25 -6 25 c-5 18 -9 21
-15 12 -4 -7 -17 -12 -29 -10 -16 2 -23 -3 -25 -18 -3 -21 0 -22 117 -22 l120
0 4 77 3 76 2 -77 2 -78 35 0 35 0 1 78 c0 53 3 70 9 56 6 -17 15 -20 35 -16
25 4 26 3 23 -34 -3 -34 -6 -39 -28 -39 -18 0 -26 -6 -28 -22 -3 -20 0 -21
117 -21 l121 0 -1 47 c-1 35 -3 40 -8 21 -4 -16 -14 -25 -26 -25 -16 0 -21 8
-23 36 -3 41 18 58 40 32 11 -14 14 -13 19 13 4 18 7 0 8 -48 l1 -78 35 0 35
0 1 78 c0 53 3 70 9 56 6 -17 15 -20 35 -16 25 4 26 3 23 -34 -3 -34 -6 -39
-28 -39 -18 0 -26 -6 -28 -22 -3 -20 0 -21 117 -21 l121 0 0 31 c0 24 -3 28
-12 19 -7 -7 -20 -12 -30 -12 -14 0 -18 8 -18 41 0 41 1 41 29 36 25 -5 30 -3
34 16 2 12 5 -13 6 -55 l1 -78 35 0 35 0 1 78 c1 42 3 70 6 61 5 -21 73 -32
73 -12 0 7 5 13 10 13 6 0 10 -6 10 -13 0 -21 54 -15 65 8 8 17 10 15 13 -18
2 -20 2 -52 0 -70 l-4 -32 -11 25 c-7 14 -12 19 -12 13 -1 -7 -10 -13 -21 -13
-11 0 -20 6 -21 13 0 6 -5 1 -11 -13 l-11 -25 -6 30 c-5 25 -8 27 -14 12 -4
-12 -15 -17 -29 -15 -17 2 -24 -3 -26 -18 -3 -21 0 -22 117 -22 l121 0 0 30
c0 26 -2 29 -15 18 -25 -20 -45 -4 -45 36 0 35 1 36 29 31 25 -5 30 -3 34 16
2 12 5 -13 6 -55 l1 -78 35 0 35 0 1 78 c0 53 3 70 9 56 6 -17 15 -20 35 -16
25 4 26 3 23 -34 -3 -34 -6 -39 -28 -39 -18 0 -26 -6 -28 -22 -3 -20 0 -21
117 -21 l121 0 0 30 c0 26 -2 29 -15 18 -25 -20 -45 -4 -45 36 0 35 1 36 29
31 25 -5 30 -3 34 16 2 12 5 -13 6 -55 l1 -78 35 0 35 0 1 78 c1 42 3 69 6 60
3 -12 14 -18 34 -18 29 0 30 -2 27 -37 -3 -33 -6 -38 -28 -38 -18 0 -26 -6
-28 -22 -3 -20 0 -21 117 -21 120 0 121 0 121 23 0 20 -5 23 -27 22 -26 -2
-28 1 -31 37 -3 37 -2 38 23 34 20 -4 29 -1 35 16 6 14 9 -3 9 -56 l1 -78 35
0 35 0 1 78 c1 42 3 69 6 60 3 -11 13 -16 31 -15 25 2 27 -1 27 -38 0 -37 -2
-40 -27 -38 -23 1 -28 -2 -28 -22 0 -23 1 -23 120 -23 119 0 120 0 120 23 0
20 -5 23 -27 22 -26 -2 -28 1 -28 38 0 37 2 40 28 38 22 -1 27 2 27 22 l0 24
-1441 1 -1440 0 3 -23z m1156 -94 c-4 -37 -4 -37 -15 -13 -7 14 -12 19 -12 13
-1 -7 -10 -13 -20 -13 -11 0 -22 6 -24 13 -3 7 -6 6 -6 -5 -1 -9 -5 -20 -11
-23 -6 -4 -10 17 -10 54 0 34 4 61 10 61 6 0 10 -6 10 -13 0 -21 54 -15 64 8
9 18 10 16 14 -12 2 -18 2 -50 0 -70z m330 0 c-4 -37 -4 -37 -15 -13 -7 14
-12 19 -12 13 -1 -7 -10 -13 -20 -13 -11 0 -22 6 -24 13 -3 7 -6 6 -6 -5 -1
-9 -5 -20 -11 -23 -6 -4 -10 17 -10 54 0 34 4 61 10 61 6 0 10 -6 10 -13 0
-21 54 -15 64 8 9 18 10 16 14 -12 2 -18 2 -50 0 -70z m660 0 c-4 -37 -4 -37
-15 -13 -7 14 -12 19 -12 13 -1 -7 -10 -13 -20 -13 -11 0 -22 6 -24 13 -3 7
-6 6 -6 -5 -1 -9 -5 -20 -11 -23 -6 -4 -10 17 -10 54 0 34 4 61 10 61 6 0 10
-6 10 -13 0 -21 54 -15 64 8 9 18 10 16 14 -12 2 -18 2 -50 0 -70z m330 0 c-4
-37 -4 -37 -15 -13 -7 14 -12 19 -12 13 -1 -7 -10 -13 -20 -13 -11 0 -22 6
-24 13 -3 7 -6 6 -6 -5 -1 -9 -5 -20 -11 -23 -6 -4 -10 17 -10 54 0 34 4 61
10 61 6 0 10 -6 10 -13 0 -21 54 -15 64 8 9 18 10 16 14 -12 2 -18 2 -50 0
-70z m253 69 c0 -11 3 -12 6 -4 2 6 13 12 24 12 10 0 19 -6 20 -12 0 -7 5 -2
12 12 l11 25 4 -32 c2 -18 2 -50 0 -70 -4 -37 -4 -37 -15 -13 -7 14 -12 19
-12 13 -1 -7 -10 -13 -20 -13 -11 0 -22 6 -24 13 -3 7 -6 6 -6 -5 -1 -9 -5
-20 -11 -23 -6 -4 -10 18 -10 60 0 42 4 64 10 60 6 -3 10 -14 11 -23z m-1433
-41 c-2 -28 -7 -36 -23 -36 -15 0 -21 8 -23 34 -4 35 11 53 35 44 9 -4 13 -18
11 -42z m-1073 -1 c0 -28 -4 -35 -20 -35 -16 0 -21 8 -23 38 -3 35 -1 38 20
35 19 -2 23 -9 23 -38z m83 3 c-2 -30 -7 -38 -23 -38 -16 0 -21 8 -23 38 -3
34 -1 37 23 37 24 0 26 -3 23 -37z m250 0 c-2 -30 -7 -38 -23 -38 -16 0 -21 8
-23 38 -3 34 -1 37 23 37 24 0 26 -3 23 -37z m80 0 c-2 -30 -7 -38 -23 -38
-16 0 -21 8 -23 38 -3 34 -1 37 23 37 24 0 26 -3 23 -37z m247 -3 c0 -28 -4
-35 -20 -35 -16 0 -21 8 -23 38 -3 35 -1 38 20 35 19 -2 23 -9 23 -38z m83 3
c-2 -30 -7 -38 -23 -38 -16 0 -21 8 -23 38 -3 34 -1 37 23 37 24 0 26 -3 23
-37z m660 0 c-2 -30 -7 -38 -23 -38 -16 0 -21 8 -23 38 -3 34 -1 37 23 37 24
0 26 -3 23 -37z m330 0 c-2 -30 -7 -38 -23 -38 -16 0 -21 8 -23 38 -3 34 -1
37 23 37 24 0 26 -3 23 -37z m330 0 c-2 -30 -7 -38 -23 -38 -16 0 -21 8 -23
38 -3 34 -1 37 23 37 24 0 26 -3 23 -37z m330 0 c-2 -30 -7 -38 -23 -38 -16 0
-21 8 -23 38 -3 34 -1 37 23 37 24 0 26 -3 23 -37z"/>
<path d="M3750 1475 l0 -85 40 0 40 0 0 85 0 85 -40 0 -40 0 0 -85z m36 -2
c-2 -41 -26 -41 -26 0 0 18 3 37 7 40 10 11 20 -11 19 -40z"/>
<path d="M4160 1475 l0 -83 120 0 c119 0 120 0 120 23 0 20 -5 23 -27 22 -26
-2 -28 1 -28 38 0 37 2 40 28 38 22 -1 27 2 27 22 0 23 -1 23 -120 23 l-120 0
0 -83z m91 37 c0 -11 3 -12 6 -4 2 6 13 12 24 12 10 0 19 -6 20 -12 0 -7 5 -2
12 12 l11 25 4 -32 c2 -18 2 -50 0 -70 -4 -37 -4 -37 -15 -13 -7 14 -12 19
-12 13 -1 -7 -10 -13 -20 -13 -11 0 -22 6 -24 13 -3 7 -6 6 -6 -5 -1 -9 -5
-20 -11 -23 -6 -4 -10 18 -10 60 0 42 4 64 10 60 6 -3 10 -14 11 -23z m-34
-49 c-4 -17 -4 -17 -12 0 -4 9 -4 25 0 35 8 16 8 16 12 0 3 -10 3 -26 0 -35z"/>
<path d="M4410 1475 l0 -85 40 0 40 0 0 85 0 85 -40 0 -40 0 0 -85z m35 0 c0
-16 -6 -30 -12 -32 -9 -3 -13 7 -13 32 0 25 4 35 13 33 6 -3 12 -17 12 -33z"/>
<path d="M698 1292 l-3 -82 1568 0 1567 0 0 80 0 80 -1564 2 -1565 3 -3 -83z
m79 -39 c-2 -21 -4 -4 -4 37 0 41 2 58 4 38 2 -21 2 -55 0 -75z m110 78 c9 9
16 9 27 0 12 -10 15 -8 19 11 l4 23 8 -23 c6 -18 10 -20 21 -11 11 9 17 9 28
0 11 -9 15 -7 21 11 7 21 8 20 12 -9 2 -18 3 -50 1 -70 -4 -37 -4 -37 -15 -13
-7 14 -12 19 -12 13 -1 -7 -10 -13 -21 -13 -11 0 -20 6 -21 13 0 6 -5 1 -11
-13 l-11 -25 -5 23 c-3 19 -6 21 -18 11 -7 -6 -20 -9 -29 -6 -8 4 -19 -1 -24
-11 -8 -12 -10 2 -10 53 0 61 1 67 12 47 10 -17 16 -19 24 -11z m221 -43 c-1
-70 -1 -71 -8 -23 -5 42 -7 45 -10 20 -4 -22 -10 -30 -25 -30 -15 0 -21 8 -23
34 -4 39 12 61 30 43 18 -18 28 -15 28 8 0 11 2 20 5 20 3 0 4 -33 3 -72z
m110 44 c18 18 34 -4 30 -43 -2 -28 -7 -34 -26 -34 -13 0 -27 -7 -32 -15 -7
-10 -10 8 -9 55 0 62 1 67 12 47 10 -17 15 -20 25 -10z m62 1 c0 -13 3 -13 15
-3 12 10 18 10 30 0 12 -10 15 -10 15 3 0 9 5 19 10 22 6 4 10 -19 10 -62 -1
-55 -3 -65 -13 -53 -7 9 -20 14 -31 12 -10 -2 -22 2 -27 10 -7 10 -9 9 -9 -4
0 -9 -4 -20 -10 -23 -6 -4 -10 18 -10 60 0 42 4 64 10 60 6 -3 10 -13 10 -22z
m157 -80 c-2 -21 -4 -4 -4 37 0 41 2 58 4 38 2 -21 2 -55 0 -75z m106 81 c11
3 27 0 34 -6 10 -8 13 -6 13 6 0 9 5 16 10 16 6 0 10 -7 10 -16 0 -14 3 -14
15 -4 12 10 18 10 30 0 12 -10 15 -10 15 3 0 9 5 19 10 22 6 4 10 -19 10 -62
-1 -55 -3 -65 -13 -53 -7 8 -22 14 -34 12 -14 -2 -23 2 -24 10 0 7 -5 2 -11
-12 -11 -25 -11 -25 -17 10 -6 32 -7 33 -13 11 -5 -18 -12 -22 -27 -18 -13 3
-25 -1 -31 -11 -7 -12 -9 3 -9 53 1 39 3 62 6 52 3 -14 11 -17 26 -13z m224
-81 c-2 -21 -4 -4 -4 37 0 41 2 58 4 38 2 -21 2 -55 0 -75z m111 79 c25 3 27
0 27 -37 0 -35 -3 -40 -23 -40 -13 0 -27 -7 -32 -15 -7 -10 -9 8 -9 55 1 39 3
62 6 52 3 -12 13 -17 31 -15z m62 1 c0 -13 3 -13 15 -3 11 9 18 10 29 1 11 -9
15 -7 21 11 8 22 8 22 12 -5 4 -27 5 -28 18 -10 12 15 17 16 34 6 17 -11 20
-10 24 10 3 17 5 15 6 -8 1 -25 3 -27 12 -12 5 9 16 17 24 17 8 0 19 -8 24
-17 9 -15 11 -13 12 12 1 17 3 23 6 12 3 -12 11 -15 29 -11 17 5 26 1 31 -12
6 -16 9 -14 14 11 6 28 7 28 14 8 6 -19 10 -20 26 -10 16 10 21 9 28 -1 6 -10
10 -8 16 10 l8 23 4 -22 c4 -19 7 -21 23 -11 14 9 22 9 33 -1 13 -10 16 -8 20
11 2 13 4 -11 4 -52 0 -41 -2 -66 -4 -54 -3 16 -10 20 -33 16 -21 -3 -29 1
-33 15 -3 10 -5 2 -6 -17 -2 -32 -3 -33 -14 -15 -14 23 -67 29 -67 8 0 -7 -4
-13 -10 -13 -5 0 -10 6 -10 13 0 21 -62 13 -71 -9 -5 -13 -8 -5 -9 26 -2 36
-3 40 -9 20 -4 -15 -15 -26 -29 -28 -18 -3 -22 2 -24 25 -1 19 -3 14 -8 -17
-5 -30 -7 -36 -8 -17 -2 25 -4 26 -23 15 -17 -11 -22 -10 -34 5 -13 18 -14 17
-18 -10 -4 -27 -4 -27 -12 -5 -6 18 -10 20 -16 10 -7 -10 -12 -11 -29 0 -17
10 -20 10 -20 -2 0 -8 -4 -18 -10 -21 -6 -4 -10 18 -10 60 0 42 4 64 10 60 6
-3 10 -13 10 -22z m587 1 c8 3 23 1 33 -4 15 -8 19 -6 23 13 4 22 4 22 15 -3
6 -14 11 -19 11 -12 1 6 10 12 21 12 11 0 20 -6 21 -12 0 -7 5 -2 11 12 11 25
12 25 15 3 4 -19 7 -21 23 -11 14 9 22 9 33 -1 13 -10 16 -8 20 11 2 13 4 -11
4 -52 0 -41 -2 -65 -4 -52 -4 17 -9 21 -28 16 -16 -4 -26 0 -34 13 -9 16 -10
14 -11 -12 -1 -25 -3 -28 -13 -15 -7 8 -22 14 -34 12 -14 -2 -23 2 -24 10 0 7
-5 2 -12 -12 -11 -24 -11 -24 -15 15 -4 35 -6 37 -11 15 -5 -17 -14 -25 -30
-25 -12 0 -26 -7 -31 -15 -7 -10 -9 8 -9 55 1 39 3 62 6 52 3 -11 10 -16 20
-13z m341 -1 c25 2 27 -1 27 -38 0 -35 -3 -40 -23 -40 -13 0 -27 -7 -32 -15
-7 -10 -9 8 -9 55 1 39 3 62 6 53 3 -11 13 -16 31 -15z m62 0 c0 -13 3 -13 15
-3 11 9 18 10 29 1 11 -9 15 -7 21 11 7 21 8 20 12 -9 2 -18 3 -50 1 -70 -4
-37 -4 -37 -15 -13 -7 14 -12 19 -12 13 -1 -7 -10 -13 -20 -13 -11 0 -22 6
-24 13 -3 7 -6 6 -6 -5 -1 -9 -5 -20 -11 -23 -6 -4 -10 18 -10 60 0 42 4 64
10 60 6 -3 10 -13 10 -22z m159 -40 c-1 -38 -4 -58 -6 -45 -4 19 -7 21 -19 11
-23 -19 -44 -3 -44 35 0 38 15 55 33 37 17 -17 27 -13 27 9 0 11 2 20 5 20 3
0 4 -30 4 -67z m107 37 c21 19 36 0 32 -41 -2 -28 -7 -34 -26 -34 -13 0 -27
-7 -32 -15 -7 -10 -10 8 -9 55 0 54 2 65 10 46 8 -20 12 -21 25 -11z m64 3 c0
-13 3 -13 15 -3 11 9 18 10 29 1 11 -9 15 -7 21 11 7 21 8 20 12 -9 2 -18 3
-50 1 -70 -4 -37 -4 -37 -15 -13 -7 14 -12 19 -12 12 -1 -8 -10 -12 -23 -10
-13 2 -28 -4 -35 -12 -10 -12 -12 -2 -13 53 0 43 4 66 10 62 6 -3 10 -13 10
-22z m159 -40 c-1 -38 -3 -60 -6 -51 -3 13 -11 16 -34 11 -28 -5 -29 -4 -29
35 0 43 14 62 33 43 17 -17 27 -13 27 9 0 11 2 20 5 20 3 0 4 -30 4 -67z m101
37 c8 12 13 13 29 3 17 -11 20 -9 24 10 l4 22 8 -22 c6 -19 10 -21 27 -12 15
8 22 8 28 -1 5 -8 10 -4 15 12 8 21 8 21 12 -9 2 -18 3 -50 1 -70 -4 -37 -4
-37 -15 -13 -7 14 -12 19 -12 13 -1 -7 -10 -13 -21 -13 -11 0 -20 6 -21 13 0
6 -5 1 -11 -13 -11 -25 -11 -25 -17 10 -6 32 -7 33 -13 11 -5 -18 -12 -22 -27
-18 -13 3 -25 -1 -31 -11 -7 -12 -9 3 -9 53 0 56 2 65 10 45 8 -20 12 -22 19
-10z m229 -37 c-1 -38 -3 -60 -6 -51 -3 11 -13 16 -31 15 -24 -2 -27 2 -30 32
-4 41 11 60 33 41 14 -11 17 -10 22 8 9 38 13 24 12 -45z m-2914 2 c0 -33 -3
-40 -20 -40 -15 0 -21 8 -23 28 -5 39 5 59 25 55 14 -2 18 -13 18 -43z m330 0
c0 -33 -3 -40 -20 -40 -15 0 -21 8 -23 28 -5 39 5 59 25 55 14 -2 18 -13 18
-43z m251 19 c9 -36 1 -59 -21 -59 -15 0 -21 8 -23 28 -2 16 -1 34 1 41 8 21
37 14 43 -10z m79 -19 c0 -33 -3 -40 -20 -40 -22 0 -30 24 -21 61 5 17 12 24
24 22 13 -2 17 -13 17 -43z m244 31 c20 -23 10 -71 -14 -71 -15 0 -21 8 -23
28 -6 51 13 72 37 43z m86 -31 c0 -33 -3 -40 -20 -40 -15 0 -21 8 -23 28 -5
39 5 59 25 55 14 -2 18 -13 18 -43z m660 0 c0 -33 -3 -40 -20 -40 -15 0 -21 8
-23 28 -5 39 5 59 25 55 14 -2 18 -13 18 -43z m330 0 c0 -33 -3 -40 -20 -40
-15 0 -21 8 -23 28 -5 39 5 59 25 55 14 -2 18 -13 18 -43z m330 0 c0 -33 -3
-40 -20 -40 -15 0 -21 8 -23 28 -5 39 5 59 25 55 14 -2 18 -13 18 -43z m331
21 c9 -37 1 -61 -21 -61 -15 0 -21 8 -23 28 -2 16 -1 35 2 43 9 23 35 16 42
-10z m312 -27 c-1 -13 -7 -23 -13 -22 -13 3 -18 30 -11 50 10 24 29 1 24 -28z
m-3028 6 c0 -14 -4 -25 -10 -25 -5 0 -10 11 -10 25 0 14 5 25 10 25 6 0 10
-11 10 -25z"/>
<path d="M4160 1293 l0 -83 165 0 165 0 0 80 0 79 -165 3 -165 3 0 -82z m90
40 c0 -13 3 -13 15 -3 12 10 18 10 30 0 12 -10 15 -10 15 3 0 9 5 19 10 22 6
4 10 -18 10 -59 0 -37 -4 -66 -10 -66 -5 0 -10 6 -10 13 0 7 -13 12 -30 12
-17 0 -30 -5 -30 -12 0 -7 -4 -13 -10 -13 -6 0 -10 29 -10 66 0 41 4 63 10 59
6 -3 10 -13 10 -22z m159 -45 c-1 -40 -4 -63 -6 -51 -4 19 -9 21 -34 16 -28
-5 -29 -4 -29 35 0 42 25 66 42 40 6 -10 10 -7 14 10 11 38 14 25 13 -50z m39
-2 c-2 -15 -7 -28 -13 -29 -12 -2 -19 38 -10 60 9 25 27 1 23 -31z m-231 -13
c-3 -10 -5 -2 -5 17 0 19 2 27 5 18 2 -10 2 -26 0 -35z"/>
<path d="M40 1290 l0 -80 165 0 165 0 0 80 0 80 -165 0 -165 0 0 -80z m77 -37
c-2 -21 -4 -4 -4 37 0 41 2 58 4 38 2 -21 2 -55 0 -75z m110 78 c19 19 33 0
33 -43 0 -38 -1 -40 -26 -35 -19 3 -28 -1 -34 -17 -6 -14 -9 2 -9 54 0 65 1
72 12 52 10 -16 16 -19 24 -11z m63 3 c0 -8 7 -14 15 -14 10 0 15 -10 15 -30
0 -20 -5 -30 -15 -30 -8 0 -15 -7 -15 -15 0 -8 -4 -15 -10 -15 -6 0 -10 29
-10 66 0 41 4 63 10 59 6 -3 10 -13 10 -21z m-112 -42 c3 -39 1 -42 -22 -42
-23 0 -26 4 -26 38 0 43 7 54 30 50 10 -2 16 -17 18 -46z m-78 -2 c0 -16 -4
-30 -10 -30 -5 0 -10 14 -10 30 0 17 5 30 10 30 6 0 10 -13 10 -30z"/>
<path d="M40 1110 l0 -80 165 0 165 0 0 80 0 80 -165 0 -165 0 0 -80z m77 -37
c-2 -21 -4 -4 -4 37 0 41 2 58 4 38 2 -21 2 -55 0 -75z m118 75 c26 4 26 3 23
-39 -3 -38 -6 -44 -26 -44 -12 0 -27 -7 -32 -15 -7 -10 -10 9 -9 60 0 52 3 68
9 54 6 -17 15 -20 35 -16z m55 2 c0 -13 5 -18 15 -14 12 5 15 -2 15 -30 0 -35
-13 -49 -23 -23 -3 6 -6 2 -6 -10 -1 -13 -5 -23 -11 -23 -6 0 -10 27 -10 60 0
33 4 60 10 60 6 0 10 -9 10 -20z m-112 -42 c-2 -35 -7 -43 -23 -43 -16 0 -21
8 -23 43 -3 39 -2 42 23 42 25 0 26 -3 23 -42z m-78 -3 c0 -14 -4 -25 -10 -25
-5 0 -10 11 -10 25 0 14 5 25 10 25 6 0 10 -11 10 -25z"/>
<path d="M2100 1108 l0 -83 165 3 165 3 0 79 0 80 -165 0 -165 0 0 -82z m115
40 c26 4 26 3 23 -39 -3 -41 -5 -44 -30 -41 -18 2 -28 -3 -31 -15 -3 -10 -5
16 -5 57 -1 51 2 68 8 54 6 -17 15 -20 35 -16z m135 -40 c-1 -60 -3 -70 -13
-57 -7 9 -18 14 -25 11 -7 -2 -19 2 -27 8 -12 10 -15 9 -15 -3 0 -9 -4 -19
-10 -22 -6 -4 -10 18 -10 59 0 37 4 66 10 66 6 0 10 -10 11 -22 0 -13 3 -17 6
-10 2 6 13 12 24 12 10 0 19 -6 20 -12 0 -7 5 -1 11 15 5 15 12 27 14 27 2 0
4 -33 4 -72z m30 -3 c0 -19 -4 -35 -10 -35 -5 0 -10 16 -10 35 0 19 5 35 10
35 6 0 10 -16 10 -35z m-220 0 c0 -14 -4 -25 -10 -25 -5 0 -10 11 -10 25 0 14
5 25 10 25 6 0 10 -11 10 -25z"/>
<path d="M4160 1110 l0 -80 165 0 165 0 0 80 0 80 -165 0 -165 0 0 -80z m249
-2 c-1 -40 -3 -65 -6 -55 -4 14 -11 17 -29 13 -18 -5 -26 -2 -31 11 -6 15 -9
12 -14 -12 -7 -29 -7 -29 -14 -7 -6 18 -10 20 -21 11 -11 -9 -18 -8 -29 1 -12
10 -15 10 -15 -3 0 -9 -4 -19 -10 -22 -6 -4 -10 18 -10 59 0 37 4 66 10 66 6
0 10 -10 11 -22 0 -13 3 -17 6 -10 2 6 13 12 23 12 10 0 21 -6 23 -12 3 -7 6
-3 6 10 1 12 6 22 11 22 6 0 10 -10 10 -22 0 -17 3 -19 9 -9 6 9 18 11 35 7
22 -5 26 -3 26 14 0 11 2 20 5 20 3 0 4 -33 4 -72z m34 -10 c-3 -16 -9 -28
-14 -28 -11 0 -12 63 -2 74 12 11 22 -17 16 -46z"/>
<path d="M40 925 l0 -85 35 3 35 2 0 83 0 82 -35 0 -35 0 0 -85z m60 5 c0 -16
-4 -30 -10 -30 -5 0 -10 14 -10 30 0 17 5 30 10 30 6 0 10 -13 10 -30z"/>
<path d="M120 928 l0 -83 123 0 122 0 3 82 2 82 -85 0 c-83 0 -86 -1 -83 -22
2 -16 10 -22 28 -22 22 0 25 -4 25 -40 0 -35 -3 -40 -23 -40 -13 0 -27 -7 -32
-15 -7 -10 -10 11 -10 63 l0 77 -35 0 -35 0 0 -82z m170 42 c0 -13 5 -18 15
-14 12 5 15 -2 15 -31 0 -29 -3 -36 -15 -31 -10 4 -15 -1 -15 -14 0 -11 -4
-20 -10 -20 -6 0 -10 28 -10 65 0 37 4 65 10 65 6 0 10 -9 10 -20z m-115 -45
c0 -33 -3 -40 -20 -40 -15 0 -21 8 -23 28 -5 39 5 59 25 55 14 -2 18 -13 18
-43z"/>
<path d="M2100 925 l0 -85 35 3 35 2 0 83 0 82 -35 0 -35 0 0 -85z m60 0 c0
-14 -4 -25 -10 -25 -5 0 -10 11 -10 25 0 14 5 25 10 25 6 0 10 -11 10 -25z"/>
<path d="M2182 987 c2 -16 10 -22 28 -22 22 0 25 -4 25 -40 0 -36 -3 -40 -25
-40 -15 0 -26 -7 -28 -18 -3 -15 6 -17 80 -18 46 0 102 -3 126 -5 l42 -5 0 85
0 85 -126 0 c-123 0 -125 -1 -122 -22z m89 -25 c0 -11 3 -12 6 -4 2 6 13 12
24 12 10 0 19 -6 20 -12 0 -7 5 -2 12 12 l11 25 4 -32 c2 -18 2 -50 0 -70 -4
-37 -4 -37 -15 -13 -7 14 -12 19 -12 13 -1 -7 -10 -13 -20 -13 -11 0 -22 6
-24 13 -3 7 -6 6 -6 -5 -1 -9 -5 -20 -11 -23 -6 -4 -10 18 -10 60 0 42 4 64
10 60 6 -3 10 -14 11 -23z m109 -37 c0 -19 -4 -35 -10 -35 -5 0 -10 16 -10 35
0 19 5 35 10 35 6 0 10 -16 10 -35z"/>
<path d="M4160 924 l0 -85 38 5 c20 3 74 5 120 5 75 1 82 3 82 21 0 16 -5 19
-24 14 -15 -3 -27 -1 -32 8 -6 9 -10 6 -15 -12 l-6 -25 -11 25 c-6 14 -11 19
-11 13 -1 -7 -10 -13 -21 -13 -11 0 -20 6 -21 13 0 6 -5 1 -12 -13 l-11 -25
-4 32 c-2 18 -2 50 0 70 4 37 4 37 15 13 7 -14 12 -19 12 -12 1 6 10 12 21 12
11 0 20 -6 21 -12 0 -7 5 -2 11 12 l11 25 6 -25 c5 -18 9 -21 15 -12 5 9 17
11 32 8 20 -5 24 -3 24 18 l0 25 -120 0 -120 0 0 -85z"/>
<path d="M4410 928 l0 -83 40 -2 40 -3 0 85 0 85 -40 0 -40 0 0 -82z m35 -3
c0 -16 -6 -30 -12 -32 -9 -3 -13 7 -13 32 0 25 4 35 13 33 6 -3 12 -17 12 -33z"/>
<path d="M40 743 l0 -83 1195 0 1195 0 0 80 0 80 -192 2 c-106 1 -644 3 -1195
3 l-1003 0 0 -82z m77 -40 c-2 -21 -4 -4 -4 37 0 41 2 58 4 38 2 -21 2 -55 0
-75z m110 78 c9 9 16 9 27 0 12 -10 15 -8 19 11 l4 23 8 -23 c6 -18 10 -20 22
-11 10 9 17 9 26 0 8 -8 14 -6 24 11 11 20 12 13 12 -52 0 -63 -2 -72 -12 -55
-14 23 -67 29 -67 8 0 -7 -4 -13 -10 -13 -5 0 -10 6 -10 13 0 21 -62 13 -71
-9 -4 -11 -8 12 -8 56 0 65 1 72 12 52 10 -17 16 -19 24 -11z m220 -78 c-2
-21 -4 -4 -4 37 0 41 2 58 4 38 2 -21 2 -55 0 -75z m113 74 c13 4 26 0 31 -8
6 -11 9 -8 9 9 0 12 5 22 10 22 6 0 10 -10 10 -22 0 -17 3 -19 9 -10 5 8 17
12 27 10 11 -2 24 3 31 12 10 12 12 2 12 -55 0 -59 -2 -67 -12 -50 -14 23 -67
29 -67 8 0 -7 -4 -13 -10 -13 -5 0 -10 6 -10 13 0 21 -62 13 -71 -9 -4 -11 -8
12 -8 56 0 53 3 69 9 53 6 -16 14 -20 30 -16z m217 -74 c-2 -21 -4 -4 -4 37 0
41 2 58 4 38 2 -21 2 -55 0 -75z m113 74 c13 4 26 0 31 -8 6 -11 9 -8 9 9 0
12 5 22 10 22 6 0 10 -10 11 -22 0 -13 3 -17 6 -10 2 6 13 12 23 12 10 0 21
-6 23 -12 3 -8 6 -7 6 4 1 9 6 20 11 23 6 4 10 -19 10 -62 -1 -58 -3 -65 -13
-48 -14 23 -67 29 -67 8 0 -7 -4 -13 -10 -13 -5 0 -10 6 -10 13 0 21 -62 13
-71 -9 -4 -11 -8 12 -8 56 0 53 3 69 9 53 6 -16 14 -20 30 -16z m217 -74 c-2
-21 -4 -4 -4 37 0 41 2 58 4 38 2 -21 2 -55 0 -75z m117 74 c25 5 26 3 26 -37
0 -40 -1 -42 -26 -37 -19 3 -28 -1 -34 -17 -6 -14 -9 2 -9 54 0 52 3 68 9 54
6 -16 15 -20 34 -17z m213 -74 c-2 -21 -4 -4 -4 37 0 41 2 58 4 38 2 -21 2
-55 0 -75z m113 74 c13 4 26 0 31 -8 6 -11 9 -8 9 9 0 12 5 22 10 22 6 0 10
-10 11 -22 0 -13 3 -17 6 -10 2 6 13 12 23 12 10 0 21 -6 23 -12 3 -8 6 -7 6
4 1 9 6 20 11 23 6 4 10 -19 10 -62 -1 -58 -3 -65 -13 -48 -14 23 -67 29 -67
8 0 -7 -4 -13 -10 -13 -5 0 -10 10 -10 23 0 16 -3 19 -9 8 -5 -8 -18 -12 -31
-8 -16 4 -24 0 -30 -16 -6 -16 -9 0 -9 53 0 53 3 69 9 53 6 -16 14 -20 30 -16z
m217 -74 c-2 -21 -4 -4 -4 37 0 41 2 58 4 38 2 -21 2 -55 0 -75z m117 74 c25
5 26 3 26 -37 0 -40 -1 -42 -26 -37 -19 3 -28 -1 -34 -17 -6 -14 -9 2 -9 54 0
52 3 68 9 54 6 -16 15 -20 34 -17z m213 -74 c-2 -21 -4 -4 -4 37 0 41 2 58 4
38 2 -21 2 -55 0 -75z m108 77 c22 18 35 3 35 -42 0 -38 -1 -40 -26 -35 -19 3
-28 -1 -34 -17 -6 -14 -9 2 -9 54 0 57 3 69 10 51 7 -19 12 -21 24 -11z m65 3
c0 -13 3 -13 15 -3 12 10 18 10 30 0 12 -10 15 -10 15 3 0 9 5 19 10 22 6 4
10 -21 10 -67 -1 -62 -3 -70 -13 -53 -14 23 -67 29 -67 8 0 -7 -4 -13 -10 -13
-6 0 -10 29 -10 66 0 41 4 63 10 59 6 -3 10 -13 10 -22z m-990 -5 c0 -17 3
-19 9 -10 5 8 17 12 27 10 11 -2 24 3 31 12 10 12 12 2 12 -55 0 -59 -2 -67
-12 -50 -14 23 -67 29 -67 8 0 -7 -4 -13 -10 -13 -6 0 -10 27 -10 60 0 33 4
60 10 60 6 0 10 -10 10 -22z m661 0 c0 -13 3 -17 6 -10 2 6 13 12 23 12 10 0
21 -6 23 -12 3 -8 6 -7 6 4 1 9 6 20 11 23 6 4 10 -19 10 -62 -1 -58 -3 -65
-13 -48 -14 23 -67 29 -67 8 0 -7 -4 -13 -10 -13 -6 0 -10 27 -10 60 0 33 4
60 10 60 6 0 10 -10 11 -22z m-1763 -36 c3 -39 1 -42 -22 -42 -23 0 -26 4 -26
38 0 43 7 54 30 50 10 -2 16 -17 18 -46z m1980 0 c3 -39 1 -42 -22 -42 -24 0
-26 4 -26 39 0 37 12 53 35 47 6 -1 11 -21 13 -44z m-1730 1 c-2 -31 -7 -39
-25 -41 -21 -3 -23 1 -23 37 0 37 2 41 26 41 23 0 25 -3 22 -37z m80 -5 c3
-35 1 -38 -22 -38 -24 0 -26 4 -26 41 0 36 2 40 23 37 18 -2 23 -10 25 -40z
m247 2 c0 -29 -4 -36 -22 -38 -21 -3 -23 1 -23 38 0 37 2 41 23 38 18 -2 22
-9 22 -38z m85 0 c0 -36 -2 -40 -25 -40 -22 0 -25 4 -25 40 0 36 3 40 25 40
23 0 25 -4 25 -40z m245 0 c0 -29 -4 -36 -22 -38 -21 -3 -23 1 -23 38 0 37 2
41 23 38 18 -2 22 -9 22 -38z m85 0 c0 -36 -2 -40 -25 -40 -22 0 -25 4 -25 40
0 36 3 40 25 40 23 0 25 -4 25 -40z m245 0 c0 -29 -4 -36 -22 -38 -21 -3 -23
1 -23 38 0 37 2 41 23 38 18 -2 22 -9 22 -38z m85 0 c0 -36 -2 -40 -25 -40
-22 0 -25 4 -25 40 0 36 3 40 25 40 23 0 25 -4 25 -40z m245 0 c0 -29 -4 -36
-22 -38 -21 -3 -23 1 -23 38 0 37 2 41 23 38 18 -2 22 -9 22 -38z m85 0 c0
-36 -2 -40 -25 -40 -22 0 -25 4 -25 40 0 36 3 40 25 40 23 0 25 -4 25 -40z
m245 0 c0 -29 -4 -36 -22 -38 -21 -3 -23 1 -23 38 0 37 2 41 23 38 18 -2 22
-9 22 -38z m-1975 0 c0 -16 -4 -30 -10 -30 -5 0 -10 14 -10 30 0 17 5 30 10
30 6 0 10 -13 10 -30z m2280 0 c0 -16 -4 -30 -10 -30 -5 0 -10 14 -10 30 0 17
5 30 10 30 6 0 10 -13 10 -30z"/>
<path d="M2840 745 l0 -85 825 0 825 0 0 83 0 82 -825 2 -825 3 0 -85z m249
-7 c-1 -40 -4 -63 -6 -51 -4 19 -9 21 -34 16 -28 -5 -29 -5 -29 36 0 33 4 41
18 41 10 0 23 -5 30 -12 9 -9 12 -6 12 15 0 15 2 27 5 27 3 0 4 -33 4 -72z
m115 39 c25 5 26 3 26 -37 0 -40 -1 -42 -26 -37 -19 3 -28 -1 -34 -17 -6 -14
-9 2 -9 54 0 52 3 68 9 54 6 -16 15 -20 34 -17z m215 -39 c-1 -40 -4 -63 -6
-51 -4 19 -9 21 -34 16 -20 -4 -29 -2 -30 8 -1 8 -5 1 -9 -16 -6 -27 -8 -28
-16 -10 -10 23 -64 29 -64 8 0 -7 -4 -13 -10 -13 -6 0 -10 27 -10 60 0 33 4
60 10 60 6 0 10 -10 11 -22 0 -13 3 -17 6 -10 2 6 13 12 24 12 10 0 19 -6 20
-12 0 -7 5 -2 11 12 l11 25 7 -25 c5 -14 8 -19 9 -11 1 10 10 12 31 8 25 -6
30 -3 30 13 0 11 2 20 5 20 3 0 4 -33 4 -72z m115 39 c25 5 26 3 26 -37 0 -40
-1 -42 -26 -37 -19 3 -28 -1 -34 -17 -6 -14 -9 2 -9 54 0 52 3 68 9 54 6 -16
15 -20 34 -17z m215 -39 c-1 -40 -3 -64 -6 -53 -3 11 -10 25 -15 30 -8 7 -9 6
-4 -2 5 -9 -1 -13 -19 -13 -24 0 -26 3 -23 38 3 34 6 37 31 35 21 -1 27 3 27
18 0 10 2 19 5 19 3 0 4 -33 4 -72z m111 42 c16 0 31 -6 33 -12 3 -7 6 -3 6
10 1 23 21 32 21 8 0 -9 8 -12 25 -8 17 3 25 0 26 -9 0 -8 5 -3 11 11 l11 25
7 -25 c5 -14 8 -19 9 -11 1 9 10 12 31 9 23 -4 30 0 33 16 2 12 4 -13 4 -54 0
-41 -2 -65 -4 -53 -4 19 -9 21 -34 16 -20 -4 -29 -2 -30 8 -1 8 -5 1 -9 -16
-6 -27 -8 -28 -16 -10 -10 23 -64 29 -64 8 0 -29 -20 -11 -21 20 -1 25 -3 27
-6 8 -4 -18 -10 -22 -30 -18 -18 3 -27 -1 -33 -17 -6 -14 -9 3 -8 54 0 41 2
67 5 58 3 -12 14 -18 33 -18z m328 2 c25 3 27 0 30 -41 3 -42 3 -43 -23 -39
-20 4 -29 1 -35 -16 -6 -14 -9 3 -8 54 0 41 2 67 5 57 3 -12 13 -17 31 -15z
m62 1 c0 -13 3 -13 15 -3 11 9 18 10 29 1 11 -9 15 -7 21 11 l8 23 4 -22 c4
-19 7 -21 24 -10 16 10 21 9 29 -3 7 -12 11 -10 19 10 8 20 10 9 9 -50 0 -41
-3 -65 -5 -52 -4 18 -9 21 -30 16 -16 -4 -28 -2 -34 7 -6 10 -9 8 -9 -8 0 -13
-4 -23 -10 -23 -5 0 -10 6 -10 13 0 7 -13 12 -30 12 -17 0 -30 -5 -30 -12 0
-7 -4 -13 -10 -13 -6 0 -10 29 -10 66 0 41 4 63 10 59 6 -3 10 -13 10 -22z
m-1320 -5 c0 -17 3 -19 9 -10 5 8 17 12 27 10 11 -2 24 3 31 12 10 12 12 2 13
-53 0 -43 -4 -66 -10 -62 -5 3 -10 12 -10 18 0 7 -13 12 -30 12 -17 0 -30 -5
-30 -12 0 -7 -4 -13 -10 -13 -6 0 -10 27 -10 60 0 33 4 60 10 60 6 0 10 -10
10 -22z m660 -4 c0 -13 2 -13 16 1 12 11 20 13 27 6 7 -7 14 -5 23 7 11 14 13
7 14 -51 0 -43 -4 -66 -10 -62 -5 3 -10 12 -10 18 0 7 -13 12 -30 12 -17 0
-30 -5 -30 -12 0 -7 -4 -13 -10 -13 -6 0 -10 27 -10 61 0 37 4 58 10 54 6 -3
10 -13 10 -21z m-445 -34 c0 -29 -4 -36 -22 -38 -21 -3 -23 1 -23 38 0 37 2
41 23 38 18 -2 22 -9 22 -38z m330 0 c0 -29 -4 -36 -22 -38 -21 -3 -23 1 -23
38 0 37 2 41 23 38 18 -2 22 -9 22 -38z m330 0 c0 -29 -4 -36 -22 -38 -19 -3
-23 1 -23 21 0 38 11 58 29 55 11 -2 16 -14 16 -38z m335 0 c0 -36 -2 -40 -25
-40 -22 0 -25 4 -25 40 0 36 3 40 25 40 23 0 25 -4 25 -40z m308 -4 c-2 -15
-7 -28 -13 -29 -12 -2 -19 38 -10 60 9 25 27 1 23 -31z"/>
<path d="M40 558 l0 -83 1195 0 1195 0 0 83 0 82 -1195 0 -1195 0 0 -82z m77
-35 c-2 -21 -4 -4 -4 37 0 41 2 58 4 38 2 -21 2 -55 0 -75z m113 74 c13 4 26
0 31 -8 6 -11 9 -8 9 9 0 12 5 22 10 22 6 0 10 -10 10 -22 0 -17 3 -19 9 -10
5 8 17 12 27 10 12 -2 24 4 31 17 10 17 12 9 12 -50 0 -57 -2 -67 -12 -55 -7
9 -20 14 -31 12 -10 -2 -22 2 -27 10 -6 9 -9 7 -9 -9 0 -13 -4 -23 -10 -23 -5
0 -10 10 -10 23 0 16 -3 19 -9 8 -5 -8 -18 -12 -30 -8 -13 3 -25 -1 -31 -11
-7 -12 -9 3 -9 53 0 50 3 64 9 48 6 -16 14 -20 30 -16z m217 -74 c-2 -21 -4
-4 -4 37 0 41 2 58 4 38 2 -21 2 -55 0 -75z m113 74 c13 4 26 0 31 -8 6 -11 9
-8 9 9 0 12 5 22 10 22 6 0 10 -10 10 -22 0 -17 3 -19 9 -10 5 8 17 12 27 10
12 -2 24 4 31 17 10 17 12 9 12 -50 0 -57 -2 -67 -12 -55 -7 9 -20 14 -31 12
-10 -2 -22 2 -27 10 -6 9 -9 7 -9 -9 0 -13 -4 -23 -10 -23 -5 0 -10 10 -10 23
0 16 -3 19 -9 8 -5 -8 -18 -12 -31 -8 -16 4 -24 0 -30 -16 -6 -16 -9 0 -9 53
0 53 3 69 9 53 6 -16 14 -20 30 -16z m217 -74 c-2 -21 -4 -4 -4 37 0 41 2 58
4 38 2 -21 2 -55 0 -75z m107 76 c11 9 18 8 30 -4 15 -15 16 -15 16 4 0 28 20
27 21 -1 0 -13 3 -17 6 -10 2 6 13 12 24 12 10 0 19 -6 19 -12 1 -7 7 1 15 17
13 29 13 28 14 -38 1 -43 -3 -66 -9 -62 -5 3 -10 14 -11 23 0 11 -3 12 -6 5
-2 -7 -13 -13 -23 -13 -10 0 -21 6 -23 13 -3 6 -6 2 -6 -10 -1 -13 -5 -23 -11
-23 -5 0 -10 10 -10 23 0 16 -3 19 -9 8 -5 -8 -18 -12 -31 -8 -16 4 -24 0 -30
-16 -6 -16 -9 0 -9 53 0 57 3 69 10 51 7 -18 12 -21 23 -12z m223 -76 c-2 -21
-4 -4 -4 37 0 41 2 58 4 38 2 -21 2 -55 0 -75z m110 78 c7 7 15 6 27 -6 15
-15 16 -15 16 4 0 28 20 27 21 -1 0 -13 3 -17 6 -10 2 6 13 12 24 12 10 0 19
-6 19 -12 1 -7 7 1 15 17 13 29 13 28 14 -38 1 -43 -3 -66 -9 -62 -5 3 -10 14
-11 23 0 11 -3 12 -6 5 -2 -7 -13 -13 -23 -13 -10 0 -21 6 -23 13 -3 6 -6 2
-6 -10 -1 -13 -5 -23 -11 -23 -5 0 -10 10 -10 23 0 16 -3 19 -9 8 -5 -8 -18
-12 -31 -8 -16 4 -24 0 -30 -16 -6 -16 -9 0 -9 53 0 65 1 72 12 52 9 -16 16
-19 24 -11z m220 -78 c-2 -21 -4 -4 -4 37 0 41 2 58 4 38 2 -21 2 -55 0 -75z
m113 74 c13 4 26 0 31 -8 6 -11 9 -8 9 9 0 12 5 22 10 22 6 0 10 -10 11 -22 0
-13 3 -17 6 -10 2 6 13 12 24 12 10 0 19 -6 19 -12 1 -7 7 1 15 17 13 29 13
28 14 -38 1 -43 -3 -66 -9 -62 -5 3 -10 14 -11 23 0 11 -3 12 -6 5 -2 -7 -13
-13 -23 -13 -10 0 -21 6 -23 13 -3 6 -6 2 -6 -10 -1 -13 -5 -23 -11 -23 -5 0
-10 10 -10 23 0 16 -3 19 -9 8 -5 -8 -18 -12 -31 -8 -16 4 -24 0 -30 -16 -6
-16 -9 0 -9 53 0 53 3 69 9 53 6 -16 14 -20 30 -16z m217 -74 c-2 -21 -4 -4
-4 37 0 41 2 58 4 38 2 -21 2 -55 0 -75z m117 74 c25 5 26 3 26 -37 0 -40 -1
-42 -26 -37 -19 3 -28 -1 -34 -17 -6 -14 -9 2 -9 54 0 52 3 68 9 54 6 -16 15
-20 34 -17z m134 -64 c-4 -37 -4 -37 -15 -13 -7 14 -12 19 -12 13 -1 -7 -10
-13 -20 -13 -11 0 -22 6 -24 13 -3 6 -6 2 -6 -10 -1 -13 -5 -23 -11 -23 -6 0
-10 27 -10 60 0 33 4 60 10 60 6 0 10 -10 11 -22 0 -13 3 -17 6 -10 2 6 13 12
24 12 10 0 19 -6 20 -12 0 -7 6 1 12 17 l12 30 3 -32 c2 -18 2 -50 0 -70z m79
-10 c-2 -21 -4 -4 -4 37 0 41 2 58 4 38 2 -21 2 -55 0 -75z m117 74 c25 5 26
3 26 -37 0 -40 -1 -42 -26 -37 -19 3 -28 -1 -34 -17 -6 -14 -9 2 -9 54 0 52 3
68 9 54 6 -16 15 -20 34 -17z m134 -64 c-4 -37 -4 -37 -15 -13 -7 14 -12 19
-12 13 -1 -7 -10 -13 -20 -13 -11 0 -22 6 -24 13 -3 6 -6 2 -6 -10 -1 -13 -5
-23 -11 -23 -6 0 -10 27 -10 60 0 33 4 60 10 60 6 0 10 -10 11 -22 0 -13 3
-17 6 -10 2 6 13 12 24 12 10 0 19 -6 20 -12 0 -7 6 1 12 17 l12 30 3 -32 c2
-18 2 -50 0 -70z m-2168 27 c0 -36 -2 -40 -25 -40 -22 0 -25 4 -25 40 0 36 3
40 25 40 23 0 25 -4 25 -40z m245 0 c0 -29 -4 -36 -22 -38 -21 -3 -23 1 -23
38 0 37 2 41 23 38 18 -2 22 -9 22 -38z m85 -1 c0 -36 -2 -40 -22 -37 -19 2
-24 10 -26 41 -3 34 -1 37 22 37 24 0 26 -4 26 -41z m245 1 c0 -29 -4 -36 -22
-38 -21 -3 -23 1 -23 38 0 37 2 41 23 38 18 -2 22 -9 22 -38z m85 0 c0 -36 -2
-40 -25 -40 -22 0 -25 4 -25 40 0 36 3 40 25 40 23 0 25 -4 25 -40z m245 0 c0
-29 -4 -36 -22 -38 -21 -3 -23 1 -23 38 0 37 2 41 23 38 18 -2 22 -9 22 -38z
m85 -1 c0 -36 -2 -40 -22 -37 -19 2 -24 10 -26 41 -3 34 -1 37 22 37 24 0 26
-4 26 -41z m245 1 c0 -29 -4 -36 -22 -38 -21 -3 -23 1 -23 38 0 37 2 41 23 38
18 -2 22 -9 22 -38z m85 0 c0 -36 -2 -40 -25 -40 -22 0 -25 4 -25 40 0 36 3
40 25 40 23 0 25 -4 25 -40z m245 0 c0 -29 -4 -36 -22 -38 -21 -3 -23 1 -23
38 0 37 2 41 23 38 18 -2 22 -9 22 -38z m85 0 c0 -36 -2 -40 -25 -40 -22 0
-25 4 -25 40 0 36 3 40 25 40 23 0 25 -4 25 -40z m245 0 c0 -29 -4 -36 -22
-38 -21 -3 -23 1 -23 38 0 37 2 41 23 38 18 -2 22 -9 22 -38z m85 0 c0 -36 -2
-40 -25 -40 -22 0 -25 4 -25 40 0 36 3 40 25 40 23 0 25 -4 25 -40z m220 0 c0
-16 -4 -30 -10 -30 -5 0 -10 14 -10 30 0 17 5 30 10 30 6 0 10 -13 10 -30z
m-2280 0 c0 -11 -4 -20 -10 -20 -5 0 -10 9 -10 20 0 11 5 20 10 20 6 0 10 -9
10 -20z"/>
<path d="M2840 558 l0 -83 820 0 c774 0 820 1 820 18 0 9 -7 17 -15 17 -8 0
-15 7 -15 15 0 8 9 15 20 15 17 0 20 7 20 50 l0 50 -825 0 -825 0 0 -82z m168
-25 c-4 -37 -4 -37 -15 -13 -7 14 -12 19 -12 13 -1 -7 -10 -13 -20 -13 -11 0
-22 6 -24 13 -3 6 -6 2 -6 -10 -1 -13 -5 -23 -11 -23 -6 0 -10 27 -10 60 0 33
4 60 10 60 6 0 10 -10 10 -22 0 -17 3 -20 9 -9 5 8 18 12 29 9 15 -4 22 0 28
16 6 18 8 17 11 -11 2 -18 3 -50 1 -70z m81 25 c-1 -49 -3 -63 -8 -43 -4 20
-9 26 -14 18 -5 -7 -17 -13 -28 -13 -16 0 -19 7 -19 40 0 32 4 40 18 40 10 0
23 -5 30 -12 9 -9 12 -6 12 15 0 15 2 27 5 27 3 0 4 -33 4 -72z m115 39 c25 5
26 3 26 -37 0 -40 -1 -42 -26 -37 -19 3 -28 -1 -34 -17 -6 -14 -9 2 -9 54 0
52 3 68 9 54 6 -16 15 -20 34 -17z m134 -64 c-4 -37 -4 -37 -15 -13 -7 14 -12
19 -12 13 -1 -7 -10 -13 -20 -13 -11 0 -22 6 -24 13 -3 7 -6 6 -6 -5 -1 -9 -5
-20 -11 -23 -6 -4 -10 17 -10 54 0 34 4 61 10 61 6 0 10 -10 11 -22 0 -13 3
-17 6 -10 2 6 13 12 23 12 10 0 21 -6 23 -12 3 -7 6 -4 6 8 1 11 4 24 9 28 9
10 14 -41 10 -91z m81 25 c-1 -40 -4 -63 -6 -51 -4 19 -9 21 -34 16 -28 -5
-29 -5 -29 37 0 42 0 42 30 37 25 -6 30 -3 30 13 0 11 2 20 5 20 3 0 4 -33 4
-72z m115 39 c25 5 26 3 26 -37 0 -40 -1 -42 -26 -37 -19 3 -28 -1 -34 -17 -6
-14 -9 2 -9 54 0 52 3 68 9 54 6 -16 15 -20 34 -17z m134 -64 c-4 -37 -4 -37
-15 -13 -7 14 -12 19 -12 13 -1 -7 -10 -13 -20 -13 -11 0 -22 6 -24 13 -3 7
-6 6 -6 -5 -1 -9 -5 -20 -11 -23 -6 -4 -10 17 -10 54 0 34 4 61 10 61 6 0 10
-10 11 -22 0 -13 3 -17 6 -10 2 6 13 12 23 12 10 0 21 -6 23 -12 3 -7 6 -4 6
8 1 11 4 24 9 28 9 10 14 -41 10 -91z m81 25 c-1 -40 -4 -63 -6 -51 -4 19 -9
21 -34 16 -28 -5 -29 -5 -29 37 0 42 0 42 30 37 25 -6 30 -3 30 13 0 11 2 20
5 20 3 0 4 -33 4 -72z m111 42 c16 0 31 -6 33 -12 3 -7 6 -3 6 10 1 23 21 32
21 9 0 -21 54 -15 64 8 8 18 10 16 16 -15 4 -19 8 -27 9 -16 1 15 6 17 30 13
25 -5 30 -3 34 16 2 12 4 -12 4 -53 0 -41 -2 -65 -4 -52 -4 18 -9 21 -30 16
-16 -4 -28 -2 -34 7 -6 10 -9 7 -9 -11 -1 -21 -2 -23 -13 -10 -7 8 -22 14 -34
12 -14 -2 -23 3 -26 15 -4 15 -5 14 -6 -4 -2 -33 -21 -38 -22 -6 -1 19 -3 22
-6 9 -4 -14 -11 -17 -33 -12 -24 4 -29 2 -33 -17 -2 -12 -4 12 -4 53 -1 41 1
67 4 58 3 -12 14 -18 33 -18z m330 0 c16 0 31 -6 33 -12 3 -7 6 1 7 17 0 26 2
28 13 14 7 -9 24 -18 39 -21 21 -4 28 0 33 16 7 19 8 18 15 -9 4 -16 8 -24 9
-17 0 6 14 12 30 12 20 0 31 6 34 18 3 9 5 -17 5 -58 0 -54 -2 -67 -8 -45 -4
17 -8 24 -9 18 0 -7 -12 -13 -26 -13 -14 0 -25 6 -26 13 -1 6 -4 1 -9 -13 l-7
-25 -11 25 c-6 14 -11 19 -11 12 -1 -8 -10 -12 -23 -10 -13 2 -28 -4 -35 -12
-11 -13 -12 -11 -13 10 0 18 -3 21 -9 11 -5 -8 -18 -12 -31 -8 -16 4 -24 0
-30 -16 -6 -15 -9 1 -8 53 0 41 2 67 5 58 3 -12 14 -18 33 -18z m-1045 -40 c0
-29 -4 -36 -22 -38 -21 -3 -23 1 -23 38 0 37 2 41 23 38 18 -2 22 -9 22 -38z
m333 3 c-2 -30 -7 -38 -23 -38 -16 0 -21 8 -23 38 -3 34 -1 37 23 37 24 0 26
-3 23 -37z m330 -5 c3 -35 1 -38 -22 -38 -24 0 -26 4 -26 41 0 36 2 40 23 37
18 -2 23 -10 25 -40z m332 1 c0 -36 -2 -40 -22 -37 -19 2 -24 10 -26 41 -3 34
-1 37 22 37 24 0 26 -4 26 -41z m296 4 c-11 -11 -19 6 -11 24 8 17 8 17 12 0
3 -10 2 -21 -1 -24z"/>
<path d="M4477 522 c6 -4 13 -25 16 -47 4 -40 4 -40 5 8 2 39 -1 47 -15 47
-12 0 -14 -3 -6 -8z"/>
</g>
</svg>
